<?xml version="1.0" encoding="utf-8" standalone="no"?>
<!DOCTYPE svg PUBLIC "-//W3C//DTD SVG 1.1//EN"
  "http://www.w3.org/Graphics/SVG/1.1/DTD/svg11.dtd">
<!-- Created with matplotlib (http://matplotlib.org/) -->
<svg height="196.693437pt" version="1.1" viewBox="0 0 202.242852 196.693437" width="202.242852pt" xmlns="http://www.w3.org/2000/svg" xmlns:xlink="http://www.w3.org/1999/xlink">
 <defs>
  <style type="text/css">
*{stroke-linecap:butt;stroke-linejoin:round;}
  </style>
 </defs>
 <g id="figure_1">
  <g id="patch_1">
   <path d="M 0 196.693437 
L 202.242852 196.693437 
L 202.242852 0 
L 0 0 
z
" style="fill:none;"/>
  </g>
  <g id="axes_1">
   <g id="patch_2">
    <path d="M 46.625 159.700078 
L 187.745 159.700078 
L 187.745 18.580078 
L 46.625 18.580078 
z
" style="fill:none;"/>
   </g>
   <g id="matplotlib.axis_1">
    <g id="xtick_1">
     <g id="line2d_1">
      <defs>
       <path d="M 0 0 
L 0 3.5 
" id="m9e8af5e8f7" style="stroke:#000000;stroke-width:0.85;"/>
      </defs>
      <g>
       <use style="stroke:#000000;stroke-width:0.85;" x="46.625" xlink:href="#m9e8af5e8f7" y="159.700078"/>
      </g>
     </g>
     <g id="text_1">
      <text style="font-family:Helvetica;font-size:7.5px;font-style:normal;font-weight:500;text-anchor:middle;" transform="rotate(-0, 46.625, 172.080156)" x="46.625" y="172.080156">0.00</text>
     </g>
    </g>
    <g id="xtick_2">
     <g id="line2d_2">
      <g>
       <use style="stroke:#000000;stroke-width:0.85;" x="74.849" xlink:href="#m9e8af5e8f7" y="159.700078"/>
      </g>
     </g>
     <g id="text_2">
      <text style="font-family:Helvetica;font-size:7.5px;font-style:normal;font-weight:500;text-anchor:middle;" transform="rotate(-0, 74.849, 172.080156)" x="74.849" y="172.080156">0.25</text>
     </g>
    </g>
    <g id="xtick_3">
     <g id="line2d_3">
      <g>
       <use style="stroke:#000000;stroke-width:0.85;" x="103.073" xlink:href="#m9e8af5e8f7" y="159.700078"/>
      </g>
     </g>
     <g id="text_3">
      <text style="font-family:Helvetica;font-size:7.5px;font-style:normal;font-weight:500;text-anchor:middle;" transform="rotate(-0, 103.073, 172.080156)" x="103.073" y="172.080156">0.50</text>
     </g>
    </g>
    <g id="xtick_4">
     <g id="line2d_4">
      <g>
       <use style="stroke:#000000;stroke-width:0.85;" x="131.297" xlink:href="#m9e8af5e8f7" y="159.700078"/>
      </g>
     </g>
     <g id="text_4">
      <text style="font-family:Helvetica;font-size:7.5px;font-style:normal;font-weight:500;text-anchor:middle;" transform="rotate(-0, 131.297, 172.080156)" x="131.297" y="172.080156">0.75</text>
     </g>
    </g>
    <g id="xtick_5">
     <g id="line2d_5">
      <g>
       <use style="stroke:#000000;stroke-width:0.85;" x="159.521" xlink:href="#m9e8af5e8f7" y="159.700078"/>
      </g>
     </g>
     <g id="text_5">
      <text style="font-family:Helvetica;font-size:7.5px;font-style:normal;font-weight:500;text-anchor:middle;" transform="rotate(-0, 159.521, 172.080156)" x="159.521" y="172.080156">1.00</text>
     </g>
    </g>
    <g id="xtick_6">
     <g id="line2d_6">
      <g>
       <use style="stroke:#000000;stroke-width:0.85;" x="187.745" xlink:href="#m9e8af5e8f7" y="159.700078"/>
      </g>
     </g>
     <g id="text_6">
      <text style="font-family:Helvetica;font-size:7.5px;font-style:normal;font-weight:500;text-anchor:middle;" transform="rotate(-0, 187.745, 172.080156)" x="187.745" y="172.080156">1.25</text>
     </g>
    </g>
    <g id="text_7">
     <!-- True $V_{g}$ (V) -->
     <g transform="translate(98.21 186.118437)">
      <text>
       <tspan style="font-family:Helvetica;font-size:7.5px;font-style:regular;font-weight:regular;" x="0 4.581299 7.078857 11.25 15.421143 25.800483 27.884224 30.381782 35.384224" y="-0.265625">True  (V)</tspan>
       <tspan style="font-family:Arial;font-size:7.5px;font-style:italic;font-weight:italic;" x="17.504883" y="-0.265625">V</tspan>
       <tspan style="font-family:Arial;font-size:5.25px;font-style:italic;font-weight:italic;" x="22.507324" y="1.97453125">g</tspan>
      </text>
     </g>
    </g>
   </g>
   <g id="matplotlib.axis_2">
    <g id="ytick_1">
     <g id="line2d_7">
      <defs>
       <path d="M 0 0 
L -3.5 0 
" id="mc6705599f4" style="stroke:#000000;stroke-width:0.85;"/>
      </defs>
      <g>
       <use style="stroke:#000000;stroke-width:0.85;" x="46.625" xlink:href="#mc6705599f4" y="140.643488"/>
      </g>
     </g>
     <g id="text_8">
      <!-- $\mathdefault{10^{-3}}$ -->
      <g transform="translate(25 143.333528)">
       <text>
        <tspan style="font-family:Helvetica;font-size:7.5px;font-style:regular;font-weight:regular;" x="0 4.171143" y="-0.5796875000000004">10</tspan>
        <tspan style="font-family:Helvetica;font-size:5.25px;font-style:regular;font-weight:regular;" x="8.410918 11.476836" y="-3.325">−3</tspan>
       </text>
      </g>
     </g>
    </g>
    <g id="ytick_2">
     <g id="line2d_8">
      <g>
       <use style="stroke:#000000;stroke-width:0.85;" x="46.625" xlink:href="#mc6705599f4" y="113.379672"/>
      </g>
     </g>
     <g id="text_9">
      <!-- $\mathdefault{10^{-2}}$ -->
      <g transform="translate(25 116.069711)">
       <text>
        <tspan style="font-family:Helvetica;font-size:7.5px;font-style:regular;font-weight:regular;" x="0 4.171143" y="-0.5687500000000005">10</tspan>
        <tspan style="font-family:Helvetica;font-size:5.25px;font-style:regular;font-weight:regular;" x="8.410918 11.476836" y="-3.3140625000000004">−2</tspan>
       </text>
      </g>
     </g>
    </g>
    <g id="ytick_3">
     <g id="line2d_9">
      <g>
       <use style="stroke:#000000;stroke-width:0.85;" x="46.625" xlink:href="#mc6705599f4" y="86.115856"/>
      </g>
     </g>
     <g id="text_10">
      <!-- $\mathdefault{10^{-1}}$ -->
      <g transform="translate(25 88.805895)">
       <text>
        <tspan style="font-family:Helvetica;font-size:7.5px;font-style:regular;font-weight:regular;" x="0 4.171143" y="-0.6015625">10</tspan>
        <tspan style="font-family:Helvetica;font-size:5.25px;font-style:regular;font-weight:regular;" x="8.410918 11.476836" y="-3.346875">−1</tspan>
       </text>
      </g>
     </g>
    </g>
    <g id="ytick_4">
     <g id="line2d_10">
      <g>
       <use style="stroke:#000000;stroke-width:0.85;" x="46.625" xlink:href="#mc6705599f4" y="58.85204"/>
      </g>
     </g>
     <g id="text_11">
      <!-- $\mathdefault{10^{0}}$ -->
      <g transform="translate(28.075 61.542079)">
       <text>
        <tspan style="font-family:Helvetica;font-size:7.5px;font-style:regular;font-weight:regular;" x="0 4.171143" y="-0.5796875000000004">10</tspan>
        <tspan style="font-family:Helvetica;font-size:5.25px;font-style:regular;font-weight:regular;" x="8.410918" y="-3.325">0</tspan>
       </text>
      </g>
     </g>
    </g>
    <g id="ytick_5">
     <g id="line2d_11">
      <g>
       <use style="stroke:#000000;stroke-width:0.85;" x="46.625" xlink:href="#mc6705599f4" y="31.588224"/>
      </g>
     </g>
     <g id="text_12">
      <!-- $\mathdefault{10^{1}}$ -->
      <g transform="translate(28.075 34.278263)">
       <text>
        <tspan style="font-family:Helvetica;font-size:7.5px;font-style:regular;font-weight:regular;" x="0 4.171143" y="-0.6015625">10</tspan>
        <tspan style="font-family:Helvetica;font-size:5.25px;font-style:regular;font-weight:regular;" x="8.410918" y="-3.346875">1</tspan>
       </text>
      </g>
     </g>
    </g>
    <g id="ytick_6">
     <g id="line2d_12">
      <defs>
       <path d="M 0 0 
L -1.8 0 
" id="m143871f18a" style="stroke:#000000;stroke-width:0.85;"/>
      </defs>
      <g>
       <use style="stroke:#000000;stroke-width:0.85;" x="46.625" xlink:href="#m143871f18a" y="159.700078"/>
      </g>
     </g>
    </g>
    <g id="ytick_7">
     <g id="line2d_13">
      <g>
       <use style="stroke:#000000;stroke-width:0.85;" x="46.625" xlink:href="#m143871f18a" y="154.899158"/>
      </g>
     </g>
    </g>
    <g id="ytick_8">
     <g id="line2d_14">
      <g>
       <use style="stroke:#000000;stroke-width:0.85;" x="46.625" xlink:href="#m143871f18a" y="151.492852"/>
      </g>
     </g>
    </g>
    <g id="ytick_9">
     <g id="line2d_15">
      <g>
       <use style="stroke:#000000;stroke-width:0.85;" x="46.625" xlink:href="#m143871f18a" y="148.850715"/>
      </g>
     </g>
    </g>
    <g id="ytick_10">
     <g id="line2d_16">
      <g>
       <use style="stroke:#000000;stroke-width:0.85;" x="46.625" xlink:href="#m143871f18a" y="146.691932"/>
      </g>
     </g>
    </g>
    <g id="ytick_11">
     <g id="line2d_17">
      <g>
       <use style="stroke:#000000;stroke-width:0.85;" x="46.625" xlink:href="#m143871f18a" y="144.866707"/>
      </g>
     </g>
    </g>
    <g id="ytick_12">
     <g id="line2d_18">
      <g>
       <use style="stroke:#000000;stroke-width:0.85;" x="46.625" xlink:href="#m143871f18a" y="143.285625"/>
      </g>
     </g>
    </g>
    <g id="ytick_13">
     <g id="line2d_19">
      <g>
       <use style="stroke:#000000;stroke-width:0.85;" x="46.625" xlink:href="#m143871f18a" y="141.891012"/>
      </g>
     </g>
    </g>
    <g id="ytick_14">
     <g id="line2d_20">
      <g>
       <use style="stroke:#000000;stroke-width:0.85;" x="46.625" xlink:href="#m143871f18a" y="132.436262"/>
      </g>
     </g>
    </g>
    <g id="ytick_15">
     <g id="line2d_21">
      <g>
       <use style="stroke:#000000;stroke-width:0.85;" x="46.625" xlink:href="#m143871f18a" y="127.635342"/>
      </g>
     </g>
    </g>
    <g id="ytick_16">
     <g id="line2d_22">
      <g>
       <use style="stroke:#000000;stroke-width:0.85;" x="46.625" xlink:href="#m143871f18a" y="124.229036"/>
      </g>
     </g>
    </g>
    <g id="ytick_17">
     <g id="line2d_23">
      <g>
       <use style="stroke:#000000;stroke-width:0.85;" x="46.625" xlink:href="#m143871f18a" y="121.586899"/>
      </g>
     </g>
    </g>
    <g id="ytick_18">
     <g id="line2d_24">
      <g>
       <use style="stroke:#000000;stroke-width:0.85;" x="46.625" xlink:href="#m143871f18a" y="119.428116"/>
      </g>
     </g>
    </g>
    <g id="ytick_19">
     <g id="line2d_25">
      <g>
       <use style="stroke:#000000;stroke-width:0.85;" x="46.625" xlink:href="#m143871f18a" y="117.602891"/>
      </g>
     </g>
    </g>
    <g id="ytick_20">
     <g id="line2d_26">
      <g>
       <use style="stroke:#000000;stroke-width:0.85;" x="46.625" xlink:href="#m143871f18a" y="116.021809"/>
      </g>
     </g>
    </g>
    <g id="ytick_21">
     <g id="line2d_27">
      <g>
       <use style="stroke:#000000;stroke-width:0.85;" x="46.625" xlink:href="#m143871f18a" y="114.627196"/>
      </g>
     </g>
    </g>
    <g id="ytick_22">
     <g id="line2d_28">
      <g>
       <use style="stroke:#000000;stroke-width:0.85;" x="46.625" xlink:href="#m143871f18a" y="105.172446"/>
      </g>
     </g>
    </g>
    <g id="ytick_23">
     <g id="line2d_29">
      <g>
       <use style="stroke:#000000;stroke-width:0.85;" x="46.625" xlink:href="#m143871f18a" y="100.371526"/>
      </g>
     </g>
    </g>
    <g id="ytick_24">
     <g id="line2d_30">
      <g>
       <use style="stroke:#000000;stroke-width:0.85;" x="46.625" xlink:href="#m143871f18a" y="96.96522"/>
      </g>
     </g>
    </g>
    <g id="ytick_25">
     <g id="line2d_31">
      <g>
       <use style="stroke:#000000;stroke-width:0.85;" x="46.625" xlink:href="#m143871f18a" y="94.323083"/>
      </g>
     </g>
    </g>
    <g id="ytick_26">
     <g id="line2d_32">
      <g>
       <use style="stroke:#000000;stroke-width:0.85;" x="46.625" xlink:href="#m143871f18a" y="92.1643"/>
      </g>
     </g>
    </g>
    <g id="ytick_27">
     <g id="line2d_33">
      <g>
       <use style="stroke:#000000;stroke-width:0.85;" x="46.625" xlink:href="#m143871f18a" y="90.339075"/>
      </g>
     </g>
    </g>
    <g id="ytick_28">
     <g id="line2d_34">
      <g>
       <use style="stroke:#000000;stroke-width:0.85;" x="46.625" xlink:href="#m143871f18a" y="88.757993"/>
      </g>
     </g>
    </g>
    <g id="ytick_29">
     <g id="line2d_35">
      <g>
       <use style="stroke:#000000;stroke-width:0.85;" x="46.625" xlink:href="#m143871f18a" y="87.36338"/>
      </g>
     </g>
    </g>
    <g id="ytick_30">
     <g id="line2d_36">
      <g>
       <use style="stroke:#000000;stroke-width:0.85;" x="46.625" xlink:href="#m143871f18a" y="77.90863"/>
      </g>
     </g>
    </g>
    <g id="ytick_31">
     <g id="line2d_37">
      <g>
       <use style="stroke:#000000;stroke-width:0.85;" x="46.625" xlink:href="#m143871f18a" y="73.10771"/>
      </g>
     </g>
    </g>
    <g id="ytick_32">
     <g id="line2d_38">
      <g>
       <use style="stroke:#000000;stroke-width:0.85;" x="46.625" xlink:href="#m143871f18a" y="69.701404"/>
      </g>
     </g>
    </g>
    <g id="ytick_33">
     <g id="line2d_39">
      <g>
       <use style="stroke:#000000;stroke-width:0.85;" x="46.625" xlink:href="#m143871f18a" y="67.059267"/>
      </g>
     </g>
    </g>
    <g id="ytick_34">
     <g id="line2d_40">
      <g>
       <use style="stroke:#000000;stroke-width:0.85;" x="46.625" xlink:href="#m143871f18a" y="64.900484"/>
      </g>
     </g>
    </g>
    <g id="ytick_35">
     <g id="line2d_41">
      <g>
       <use style="stroke:#000000;stroke-width:0.85;" x="46.625" xlink:href="#m143871f18a" y="63.075259"/>
      </g>
     </g>
    </g>
    <g id="ytick_36">
     <g id="line2d_42">
      <g>
       <use style="stroke:#000000;stroke-width:0.85;" x="46.625" xlink:href="#m143871f18a" y="61.494177"/>
      </g>
     </g>
    </g>
    <g id="ytick_37">
     <g id="line2d_43">
      <g>
       <use style="stroke:#000000;stroke-width:0.85;" x="46.625" xlink:href="#m143871f18a" y="60.099564"/>
      </g>
     </g>
    </g>
    <g id="ytick_38">
     <g id="line2d_44">
      <g>
       <use style="stroke:#000000;stroke-width:0.85;" x="46.625" xlink:href="#m143871f18a" y="50.644814"/>
      </g>
     </g>
    </g>
    <g id="ytick_39">
     <g id="line2d_45">
      <g>
       <use style="stroke:#000000;stroke-width:0.85;" x="46.625" xlink:href="#m143871f18a" y="45.843894"/>
      </g>
     </g>
    </g>
    <g id="ytick_40">
     <g id="line2d_46">
      <g>
       <use style="stroke:#000000;stroke-width:0.85;" x="46.625" xlink:href="#m143871f18a" y="42.437587"/>
      </g>
     </g>
    </g>
    <g id="ytick_41">
     <g id="line2d_47">
      <g>
       <use style="stroke:#000000;stroke-width:0.85;" x="46.625" xlink:href="#m143871f18a" y="39.795451"/>
      </g>
     </g>
    </g>
    <g id="ytick_42">
     <g id="line2d_48">
      <g>
       <use style="stroke:#000000;stroke-width:0.85;" x="46.625" xlink:href="#m143871f18a" y="37.636668"/>
      </g>
     </g>
    </g>
    <g id="ytick_43">
     <g id="line2d_49">
      <g>
       <use style="stroke:#000000;stroke-width:0.85;" x="46.625" xlink:href="#m143871f18a" y="35.811443"/>
      </g>
     </g>
    </g>
    <g id="ytick_44">
     <g id="line2d_50">
      <g>
       <use style="stroke:#000000;stroke-width:0.85;" x="46.625" xlink:href="#m143871f18a" y="34.230361"/>
      </g>
     </g>
    </g>
    <g id="ytick_45">
     <g id="line2d_51">
      <g>
       <use style="stroke:#000000;stroke-width:0.85;" x="46.625" xlink:href="#m143871f18a" y="32.835748"/>
      </g>
     </g>
    </g>
    <g id="ytick_46">
     <g id="line2d_52">
      <g>
       <use style="stroke:#000000;stroke-width:0.85;" x="46.625" xlink:href="#m143871f18a" y="23.380998"/>
      </g>
     </g>
    </g>
    <g id="ytick_47">
     <g id="line2d_53">
      <g>
       <use style="stroke:#000000;stroke-width:0.85;" x="46.625" xlink:href="#m143871f18a" y="18.580078"/>
      </g>
     </g>
    </g>
    <g id="text_13">
     <!-- Average total flux (mol/(m$^{-2}$*s)) -->
     <g transform="translate(16.275 140.965078)rotate(-90)">
      <text>
       <tspan style="font-family:Helvetica;font-size:7.5px;font-style:regular;font-weight:regular;" x="0 5.002441 8.752441 12.923584 15.421143 19.592285 23.763428 27.93457 30.018311 32.102051 36.273193 38.356934 42.528076 44.194336 46.278076 48.361816 50.028076 54.199219 57.949219 60.032959 62.530518 68.778076 72.949219 74.615479 76.699219 79.196777 91.934089 94.85279 98.60279 101.100349" y="-0.7479687500000018">Average total flux (mol/(m*s))</tspan>
       <tspan style="font-family:Arial;font-size:5.25px;font-style:regular;font-weight:regular;" x="85.575012 88.64093" y="-5.975000000000001">−2</tspan>
      </text>
     </g>
    </g>
   </g>
   <g id="line2d_54">
    <path clip-path="url(#p7f823a2f50)" d="M 47.794271 112.142605 
L 54.90239 112.710969 
L 60.733709 114.69329 
L 74.25686 124.747186 
L 92.047723 138.069498 
L 115.743457 147.794277 
L 147.677012 153.369702 
L 203.242852 141.719138 
" style="fill:none;stroke:#8000ff;stroke-linecap:square;stroke-width:0.85;"/>
    <defs>
     <path d="M 0 2.5 
C 0.663008 2.5 1.29895 2.236584 1.767767 1.767767 
C 2.236584 1.29895 2.5 0.663008 2.5 0 
C 2.5 -0.663008 2.236584 -1.29895 1.767767 -1.767767 
C 1.29895 -2.236584 0.663008 -2.5 0 -2.5 
C -0.663008 -2.5 -1.29895 -2.236584 -1.767767 -1.767767 
C -2.236584 -1.29895 -2.5 -0.663008 -2.5 0 
C -2.5 0.663008 -2.236584 1.29895 -1.767767 1.767767 
C -1.29895 2.236584 -0.663008 2.5 0 2.5 
z
" id="m10ce4c5866"/>
    </defs>
    <g clip-path="url(#p7f823a2f50)">
     <use style="fill:#8000ff;" x="47.794271" xlink:href="#m10ce4c5866" y="112.142605"/>
     <use style="fill:#8000ff;" x="54.90239" xlink:href="#m10ce4c5866" y="112.710969"/>
     <use style="fill:#8000ff;" x="60.733709" xlink:href="#m10ce4c5866" y="114.69329"/>
     <use style="fill:#8000ff;" x="74.25686" xlink:href="#m10ce4c5866" y="124.747186"/>
     <use style="fill:#8000ff;" x="92.047723" xlink:href="#m10ce4c5866" y="138.069498"/>
     <use style="fill:#8000ff;" x="115.743457" xlink:href="#m10ce4c5866" y="147.794277"/>
     <use style="fill:#8000ff;" x="147.677012" xlink:href="#m10ce4c5866" y="153.369702"/>
     <use style="fill:#8000ff;" x="234.950835" xlink:href="#m10ce4c5866" y="135.070883"/>
     <use style="fill:#8000ff;" x="331.533399" xlink:href="#m10ce4c5866" y="85.578942"/>
     <use style="fill:#8000ff;" x="420.992349" xlink:href="#m10ce4c5866" y="66.369122"/>
     <use style="fill:#8000ff;" x="501.592968" xlink:href="#m10ce4c5866" y="56.530289"/>
     <use style="fill:#8000ff;" x="574.88241" xlink:href="#m10ce4c5866" y="70.603286"/>
     <use style="fill:#8000ff;" x="643.478168" xlink:href="#m10ce4c5866" y="60.979914"/>
     <use style="fill:#8000ff;" x="705.132967" xlink:href="#m10ce4c5866" y="51.067489"/>
     <use style="fill:#8000ff;" x="764.059401" xlink:href="#m10ce4c5866" y="37.697976"/>
     <use style="fill:#8000ff;" x="819.77189" xlink:href="#m10ce4c5866" y="29.46578"/>
     <use style="fill:#8000ff;" x="872.695056" xlink:href="#m10ce4c5866" y="23.665326"/>
    </g>
   </g>
   <g id="line2d_55">
    <path clip-path="url(#p7f823a2f50)" d="M 48.55014 93.086095 
L 58.775217 93.559217 
L 66.603929 95.068089 
L 84.427781 101.599 
L 107.585907 109.714743 
L 138.480879 115.379293 
L 178.119659 118.549723 
L 203.242852 115.730565 
" style="fill:none;stroke:#2c7ef7;stroke-linecap:square;stroke-width:0.85;"/>
    <defs>
     <path d="M 0 2.5 
C 0.663008 2.5 1.29895 2.236584 1.767767 1.767767 
C 2.236584 1.29895 2.5 0.663008 2.5 0 
C 2.5 -0.663008 2.236584 -1.29895 1.767767 -1.767767 
C 1.29895 -2.236584 0.663008 -2.5 0 -2.5 
C -0.663008 -2.5 -1.29895 -2.236584 -1.767767 -1.767767 
C -2.236584 -1.29895 -2.5 -0.663008 -2.5 0 
C -2.5 0.663008 -2.236584 1.29895 -1.767767 1.767767 
C -1.29895 2.236584 -0.663008 2.5 0 2.5 
z
" id="m0e27cbfdb5"/>
    </defs>
    <g clip-path="url(#p7f823a2f50)">
     <use style="fill:#2c7ef7;" x="48.55014" xlink:href="#m0e27cbfdb5" y="93.086095"/>
     <use style="fill:#2c7ef7;" x="58.775217" xlink:href="#m0e27cbfdb5" y="93.559217"/>
     <use style="fill:#2c7ef7;" x="66.603929" xlink:href="#m0e27cbfdb5" y="95.068089"/>
     <use style="fill:#2c7ef7;" x="84.427781" xlink:href="#m0e27cbfdb5" y="101.599"/>
     <use style="fill:#2c7ef7;" x="107.585907" xlink:href="#m0e27cbfdb5" y="109.714743"/>
     <use style="fill:#2c7ef7;" x="138.480879" xlink:href="#m0e27cbfdb5" y="115.379293"/>
     <use style="fill:#2c7ef7;" x="178.119659" xlink:href="#m0e27cbfdb5" y="118.549723"/>
     <use style="fill:#2c7ef7;" x="272.836046" xlink:href="#m0e27cbfdb5" y="107.921278"/>
     <use style="fill:#2c7ef7;" x="367.067799" xlink:href="#m0e27cbfdb5" y="70.996897"/>
     <use style="fill:#2c7ef7;" x="452.494838" xlink:href="#m0e27cbfdb5" y="61.876551"/>
     <use style="fill:#2c7ef7;" x="529.658719" xlink:href="#m0e27cbfdb5" y="56.883093"/>
     <use style="fill:#2c7ef7;" x="600.23715" xlink:href="#m0e27cbfdb5" y="60.882475"/>
     <use style="fill:#2c7ef7;" x="666.652332" xlink:href="#m0e27cbfdb5" y="54.957296"/>
     <use style="fill:#2c7ef7;" x="726.523437" xlink:href="#m0e27cbfdb5" y="43.203235"/>
     <use style="fill:#2c7ef7;" x="783.995505" xlink:href="#m0e27cbfdb5" y="33.967325"/>
     <use style="fill:#2c7ef7;" x="838.381277" xlink:href="#m0e27cbfdb5" y="26.810995"/>
     <use style="fill:#2c7ef7;" x="890.239658" xlink:href="#m0e27cbfdb5" y="21.42347"/>
    </g>
   </g>
   <g id="line2d_56">
    <path clip-path="url(#p7f823a2f50)" d="M 48.90408 84.833475 
L 60.584735 85.241778 
L 69.31908 86.485956 
L 89.064343 91.406534 
L 114.883292 97.241667 
L 148.910343 101.365973 
L 191.171803 103.767691 
L 203.242852 104.058022 
" style="fill:none;stroke:#2adddd;stroke-linecap:square;stroke-width:0.85;"/>
    <defs>
     <path d="M 0 2.5 
C 0.663008 2.5 1.29895 2.236584 1.767767 1.767767 
C 2.236584 1.29895 2.5 0.663008 2.5 0 
C 2.5 -0.663008 2.236584 -1.29895 1.767767 -1.767767 
C 1.29895 -2.236584 0.663008 -2.5 0 -2.5 
C -0.663008 -2.5 -1.29895 -2.236584 -1.767767 -1.767767 
C -2.236584 -1.29895 -2.5 -0.663008 -2.5 0 
C -2.5 0.663008 -2.236584 1.29895 -1.767767 1.767767 
C -1.29895 2.236584 -0.663008 2.5 0 2.5 
z
" id="m095e3b47d3"/>
    </defs>
    <g clip-path="url(#p7f823a2f50)">
     <use style="fill:#2adddd;" x="48.90408" xlink:href="#m095e3b47d3" y="84.833475"/>
     <use style="fill:#2adddd;" x="60.584735" xlink:href="#m095e3b47d3" y="85.241778"/>
     <use style="fill:#2adddd;" x="69.31908" xlink:href="#m095e3b47d3" y="86.485956"/>
     <use style="fill:#2adddd;" x="89.064343" xlink:href="#m095e3b47d3" y="91.406534"/>
     <use style="fill:#2adddd;" x="114.883292" xlink:href="#m095e3b47d3" y="97.241667"/>
     <use style="fill:#2adddd;" x="148.910343" xlink:href="#m095e3b47d3" y="101.365973"/>
     <use style="fill:#2adddd;" x="191.171803" xlink:href="#m095e3b47d3" y="103.767691"/>
     <use style="fill:#2adddd;" x="287.202265" xlink:href="#m095e3b47d3" y="106.077402"/>
     <use style="fill:#2adddd;" x="380.028162" xlink:href="#m095e3b47d3" y="104.933092"/>
     <use style="fill:#2adddd;" x="463.826756" xlink:href="#m095e3b47d3" y="97.577737"/>
     <use style="fill:#2adddd;" x="539.627593" xlink:href="#m095e3b47d3" y="95.058195"/>
     <use style="fill:#2adddd;" x="609.121111" xlink:href="#m095e3b47d3" y="89.624364"/>
     <use style="fill:#2adddd;" x="674.781563" xlink:href="#m095e3b47d3" y="90.809443"/>
     <use style="fill:#2adddd;" x="734.20483" xlink:href="#m095e3b47d3" y="103.099196"/>
     <use style="fill:#2adddd;" x="791.507969" xlink:href="#m095e3b47d3" y="77.207366"/>
     <use style="fill:#2adddd;" x="846.08527" xlink:href="#m095e3b47d3" y="70.014345"/>
     <use style="fill:#2adddd;" x="898.342816" xlink:href="#m095e3b47d3" y="67.485142"/>
    </g>
   </g>
   <g id="line2d_57">
    <path clip-path="url(#p7f823a2f50)" d="M 50.306981 65.776883 
L 67.673282 65.948347 
L 79.643165 66.409548 
L 105.300538 68.003413 
L 138.063616 69.856538 
L 179.045418 71.329213 
L 203.242852 71.838611 
" style="fill:none;stroke:#80ffb4;stroke-linecap:square;stroke-width:0.85;"/>
    <defs>
     <path d="M 0 2.5 
C 0.663008 2.5 1.29895 2.236584 1.767767 1.767767 
C 2.236584 1.29895 2.5 0.663008 2.5 0 
C 2.5 -0.663008 2.236584 -1.29895 1.767767 -1.767767 
C 1.29895 -2.236584 0.663008 -2.5 0 -2.5 
C -0.663008 -2.5 -1.29895 -2.236584 -1.767767 -1.767767 
C -2.236584 -1.29895 -2.5 -0.663008 -2.5 0 
C -2.5 0.663008 -2.236584 1.29895 -1.767767 1.767767 
C -1.29895 2.236584 -0.663008 2.5 0 2.5 
z
" id="mc6a7711037"/>
    </defs>
    <g clip-path="url(#p7f823a2f50)">
     <use style="fill:#80ffb4;" x="50.306981" xlink:href="#mc6a7711037" y="65.776883"/>
     <use style="fill:#80ffb4;" x="67.673282" xlink:href="#mc6a7711037" y="65.948347"/>
     <use style="fill:#80ffb4;" x="79.643165" xlink:href="#mc6a7711037" y="66.409548"/>
     <use style="fill:#80ffb4;" x="105.300538" xlink:href="#mc6a7711037" y="68.003413"/>
     <use style="fill:#80ffb4;" x="138.063616" xlink:href="#mc6a7711037" y="69.856538"/>
     <use style="fill:#80ffb4;" x="179.045418" xlink:href="#mc6a7711037" y="71.329213"/>
     <use style="fill:#80ffb4;" x="225.776741" xlink:href="#mc6a7711037" y="72.312989"/>
     <use style="fill:#80ffb4;" x="322.127774" xlink:href="#mc6a7711037" y="73.365789"/>
     <use style="fill:#80ffb4;" x="411.230346" xlink:href="#mc6a7711037" y="74.152961"/>
     <use style="fill:#80ffb4;" x="491.486051" xlink:href="#mc6a7711037" y="73.203969"/>
     <use style="fill:#80ffb4;" x="564.463237" xlink:href="#mc6a7711037" y="73.875226"/>
     <use style="fill:#80ffb4;" x="631.753823" xlink:href="#mc6a7711037" y="73.442378"/>
     <use style="fill:#80ffb4;" x="695.661116" xlink:href="#mc6a7711037" y="72.562816"/>
     <use style="fill:#80ffb4;" x="753.666038" xlink:href="#mc6a7711037" y="71.297481"/>
     <use style="fill:#80ffb4;" x="809.774184" xlink:href="#mc6a7711037" y="65.873399"/>
     <use style="fill:#80ffb4;" x="863.344137" xlink:href="#mc6a7711037" y="61.988859"/>
     <use style="fill:#80ffb4;" x="914.737741" xlink:href="#mc6a7711037" y="61.386085"/>
    </g>
   </g>
   <g id="line2d_58">
    <path clip-path="url(#p7f823a2f50)" d="M 51.142481 57.569613 
L 71.870617 57.663102 
L 85.666274 57.891923 
L 114.355494 58.672436 
L 150.124607 59.629024 
L 193.471936 60.464202 
L 203.242852 60.588464 
" style="fill:none;stroke:#d4dd80;stroke-linecap:square;stroke-width:0.85;"/>
    <defs>
     <path d="M 0 2.5 
C 0.663008 2.5 1.29895 2.236584 1.767767 1.767767 
C 2.236584 1.29895 2.5 0.663008 2.5 0 
C 2.5 -0.663008 2.236584 -1.29895 1.767767 -1.767767 
C 1.29895 -2.236584 0.663008 -2.5 0 -2.5 
C -0.663008 -2.5 -1.29895 -2.236584 -1.767767 -1.767767 
C -2.236584 -1.29895 -2.5 -0.663008 -2.5 0 
C -2.5 0.663008 -2.236584 1.29895 -1.767767 1.767767 
C -1.29895 2.236584 -0.663008 2.5 0 2.5 
z
" id="m8fe8531251"/>
    </defs>
    <g clip-path="url(#p7f823a2f50)">
     <use style="fill:#d4dd80;" x="51.142481" xlink:href="#m8fe8531251" y="57.569613"/>
     <use style="fill:#d4dd80;" x="71.870617" xlink:href="#m8fe8531251" y="57.663102"/>
     <use style="fill:#d4dd80;" x="85.666274" xlink:href="#m8fe8531251" y="57.891923"/>
     <use style="fill:#d4dd80;" x="114.355494" xlink:href="#m8fe8531251" y="58.672436"/>
     <use style="fill:#d4dd80;" x="150.124607" xlink:href="#m8fe8531251" y="59.629024"/>
     <use style="fill:#d4dd80;" x="193.471936" xlink:href="#m8fe8531251" y="60.464202"/>
     <use style="fill:#d4dd80;" x="241.195621" xlink:href="#m8fe8531251" y="61.07113"/>
     <use style="fill:#d4dd80;" x="336.726709" xlink:href="#m8fe8531251" y="61.768985"/>
     <use style="fill:#d4dd80;" x="424.157126" xlink:href="#m8fe8531251" y="62.246307"/>
     <use style="fill:#d4dd80;" x="502.968356" xlink:href="#m8fe8531251" y="62.286945"/>
     <use style="fill:#d4dd80;" x="574.836046" xlink:href="#m8fe8531251" y="61.493858"/>
     <use style="fill:#d4dd80;" x="641.245197" xlink:href="#m8fe8531251" y="62.48196"/>
     <use style="fill:#d4dd80;" x="704.444947" xlink:href="#m8fe8531251" y="61.942342"/>
     <use style="fill:#d4dd80;" x="761.855896" xlink:href="#m8fe8531251" y="60.752991"/>
     <use style="fill:#d4dd80;" x="817.481858" xlink:href="#m8fe8531251" y="58.352396"/>
     <use style="fill:#d4dd80;" x="870.648541" xlink:href="#m8fe8531251" y="56.264488"/>
     <use style="fill:#d4dd80;" x="921.678806" xlink:href="#m8fe8531251" y="56.818768"/>
    </g>
   </g>
   <g id="line2d_59">
    <path clip-path="url(#p7f823a2f50)" d="M 53.871384 38.512819 
L 85.528339 38.544971 
L 105.043549 38.600337 
L 142.119165 38.779879 
L 184.064382 39.028513 
L 203.242852 39.133807 
" style="fill:none;stroke:#ff7e41;stroke-linecap:square;stroke-width:0.85;"/>
    <defs>
     <path d="M 0 2.5 
C 0.663008 2.5 1.29895 2.236584 1.767767 1.767767 
C 2.236584 1.29895 2.5 0.663008 2.5 0 
C 2.5 -0.663008 2.236584 -1.29895 1.767767 -1.767767 
C 1.29895 -2.236584 0.663008 -2.5 0 -2.5 
C -0.663008 -2.5 -1.29895 -2.236584 -1.767767 -1.767767 
C -2.236584 -1.29895 -2.5 -0.663008 -2.5 0 
C -2.5 0.663008 -2.236584 1.29895 -1.767767 1.767767 
C -1.29895 2.236584 -0.663008 2.5 0 2.5 
z
" id="m82810763c3"/>
    </defs>
    <g clip-path="url(#p7f823a2f50)">
     <use style="fill:#ff7e41;" x="53.871384" xlink:href="#m82810763c3" y="38.512819"/>
     <use style="fill:#ff7e41;" x="85.528339" xlink:href="#m82810763c3" y="38.544971"/>
     <use style="fill:#ff7e41;" x="105.043549" xlink:href="#m82810763c3" y="38.600337"/>
     <use style="fill:#ff7e41;" x="142.119165" xlink:href="#m82810763c3" y="38.779879"/>
     <use style="fill:#ff7e41;" x="184.064382" xlink:href="#m82810763c3" y="39.028513"/>
     <use style="fill:#ff7e41;" x="230.618268" xlink:href="#m82810763c3" y="39.284105"/>
     <use style="fill:#ff7e41;" x="278.598854" xlink:href="#m82810763c3" y="39.493643"/>
     <use style="fill:#ff7e41;" x="370.632964" xlink:href="#m82810763c3" y="39.754943"/>
     <use style="fill:#ff7e41;" x="454.024546" xlink:href="#m82810763c3" y="39.914556"/>
     <use style="fill:#ff7e41;" x="529.58501" xlink:href="#m82810763c3" y="39.977034"/>
     <use style="fill:#ff7e41;" x="598.913322" xlink:href="#m82810763c3" y="39.783072"/>
     <use style="fill:#ff7e41;" x="663.336566" xlink:href="#m82810763c3" y="39.779946"/>
     <use style="fill:#ff7e41;" x="724.946513" xlink:href="#m82810763c3" y="39.9075"/>
     <use style="fill:#ff7e41;" x="781.044051" xlink:href="#m82810763c3" y="39.505265"/>
     <use style="fill:#ff7e41;" x="835.56804" xlink:href="#m82810763c3" y="38.856265"/>
     <use style="fill:#ff7e41;" x="887.781104" xlink:href="#m82810763c3" y="38.594599"/>
     <use style="fill:#ff7e41;" x="938.000346" xlink:href="#m82810763c3" y="38.689922"/>
    </g>
   </g>
   <g id="line2d_60">
    <path clip-path="url(#p7f823a2f50)" d="M 55.383589 30.305466 
L 93.088344 30.335403 
L 115.7228 30.388542 
L 156.928808 30.550906 
L 201.012467 30.752346 
L 203.242852 30.761413 
" style="fill:none;stroke:#ff0000;stroke-linecap:square;stroke-width:0.85;"/>
    <defs>
     <path d="M 0 2.5 
C 0.663008 2.5 1.29895 2.236584 1.767767 1.767767 
C 2.236584 1.29895 2.5 0.663008 2.5 0 
C 2.5 -0.663008 2.236584 -1.29895 1.767767 -1.767767 
C 1.29895 -2.236584 0.663008 -2.5 0 -2.5 
C -0.663008 -2.5 -1.29895 -2.236584 -1.767767 -1.767767 
C -2.236584 -1.29895 -2.5 -0.663008 -2.5 0 
C -2.5 0.663008 -2.236584 1.29895 -1.767767 1.767767 
C -1.29895 2.236584 -0.663008 2.5 0 2.5 
z
" id="mf06dacad64"/>
    </defs>
    <g clip-path="url(#p7f823a2f50)">
     <use style="fill:#ff0000;" x="55.383589" xlink:href="#mf06dacad64" y="30.305466"/>
     <use style="fill:#ff0000;" x="93.088344" xlink:href="#mf06dacad64" y="30.335403"/>
     <use style="fill:#ff0000;" x="115.7228" xlink:href="#mf06dacad64" y="30.388542"/>
     <use style="fill:#ff0000;" x="156.928808" xlink:href="#mf06dacad64" y="30.550906"/>
     <use style="fill:#ff0000;" x="201.012467" xlink:href="#mf06dacad64" y="30.752346"/>
     <use style="fill:#ff0000;" x="247.983016" xlink:href="#mf06dacad64" y="30.943299"/>
     <use style="fill:#ff0000;" x="295.351707" xlink:href="#mf06dacad64" y="31.092902"/>
     <use style="fill:#ff0000;" x="385.352333" xlink:href="#mf06dacad64" y="31.269868"/>
     <use style="fill:#ff0000;" x="466.925648" xlink:href="#mf06dacad64" y="31.362728"/>
     <use style="fill:#ff0000;" x="541.08577" xlink:href="#mf06dacad64" y="31.366099"/>
     <use style="fill:#ff0000;" x="609.359077" xlink:href="#mf06dacad64" y="31.299451"/>
     <use style="fill:#ff0000;" x="672.927594" xlink:href="#mf06dacad64" y="31.276298"/>
     <use style="fill:#ff0000;" x="733.849472" xlink:href="#mf06dacad64" y="31.285393"/>
     <use style="fill:#ff0000;" x="789.396489" xlink:href="#mf06dacad64" y="31.056203"/>
     <use style="fill:#ff0000;" x="843.446196" xlink:href="#mf06dacad64" y="30.771535"/>
     <use style="fill:#ff0000;" x="895.256412" xlink:href="#mf06dacad64" y="30.600673"/>
     <use style="fill:#ff0000;" x="945.126098" xlink:href="#mf06dacad64" y="30.698694"/>
    </g>
   </g>
   <g id="patch_3">
    <path d="M 46.625 159.700078 
L 46.625 18.580078 
" style="fill:none;stroke:#000000;stroke-linecap:square;stroke-linejoin:miter;stroke-width:0.85;"/>
   </g>
   <g id="patch_4">
    <path d="M 187.745 159.700078 
L 187.745 18.580078 
" style="fill:none;stroke:#000000;stroke-linecap:square;stroke-linejoin:miter;stroke-width:0.85;"/>
   </g>
   <g id="patch_5">
    <path d="M 46.625 159.700078 
L 187.745 159.700078 
" style="fill:none;stroke:#000000;stroke-linecap:square;stroke-linejoin:miter;stroke-width:0.85;"/>
   </g>
   <g id="patch_6">
    <path d="M 46.625 18.580078 
L 187.745 18.580078 
" style="fill:none;stroke:#000000;stroke-linecap:square;stroke-linejoin:miter;stroke-width:0.85;"/>
   </g>
   <g id="text_14">
    <text style="font-family:Helvetica;font-size:7.5px;font-style:normal;font-weight:normal;text-anchor:middle;" transform="rotate(-0, 117.185, 12.580078)" x="117.185" y="12.580078">15 nm</text>
   </g>
   <g id="legend_1">
    <g id="line2d_61">
     <path d="M 113.195 70.911797 
L 128.195 70.911797 
" style="fill:none;stroke:#8000ff;stroke-linecap:square;stroke-width:0.85;"/>
    </g>
    <g id="line2d_62">
     <g>
      <use style="fill:#8000ff;" x="120.695" xlink:href="#m10ce4c5866" y="70.911797"/>
     </g>
    </g>
    <g id="text_15">
     <!-- 0.0001 mol/L$^3$ -->
     <g transform="translate(134.195 73.536797)">
      <text>
       <tspan style="font-family:Helvetica;font-size:7.5px;font-style:regular;font-weight:regular;" x="0 4.171143 6.254883 10.426025 14.597168 18.768311 22.939453 25.023193 31.270752 35.441895 37.108154 39.191895" y="-0.7479687500000018">0.0001 mol/L</tspan>
       <tspan style="font-family:Arial;font-size:5.25px;font-style:regular;font-weight:regular;" x="43.493713" y="-5.975000000000001">3</tspan>
      </text>
     </g>
    </g>
    <g id="line2d_63">
     <path d="M 113.195 83.886797 
L 128.195 83.886797 
" style="fill:none;stroke:#2c7ef7;stroke-linecap:square;stroke-width:0.85;"/>
    </g>
    <g id="line2d_64">
     <g>
      <use style="fill:#2c7ef7;" x="120.695" xlink:href="#m0e27cbfdb5" y="83.886797"/>
     </g>
    </g>
    <g id="text_16">
     <!-- 0.0005 mol/L$^3$ -->
     <g transform="translate(134.195 86.511797)">
      <text>
       <tspan style="font-family:Helvetica;font-size:7.5px;font-style:regular;font-weight:regular;" x="0 4.171143 6.254883 10.426025 14.597168 18.768311 22.939453 25.023193 31.270752 35.441895 37.108154 39.191895" y="-0.7479687500000018">0.0005 mol/L</tspan>
       <tspan style="font-family:Arial;font-size:5.25px;font-style:regular;font-weight:regular;" x="43.493713" y="-5.975000000000001">3</tspan>
      </text>
     </g>
    </g>
    <g id="line2d_65">
     <path d="M 113.195 96.861797 
L 128.195 96.861797 
" style="fill:none;stroke:#2adddd;stroke-linecap:square;stroke-width:0.85;"/>
    </g>
    <g id="line2d_66">
     <g>
      <use style="fill:#2adddd;" x="120.695" xlink:href="#m095e3b47d3" y="96.861797"/>
     </g>
    </g>
    <g id="text_17">
     <!-- 0.001 mol/L$^3$ -->
     <g transform="translate(134.195 99.486797)">
      <text>
       <tspan style="font-family:Helvetica;font-size:7.5px;font-style:regular;font-weight:regular;" x="0 4.171143 6.254883 10.426025 14.597168 18.768311 20.852051 27.099609 31.270752 32.937012 35.020752" y="-0.7479687500000018">0.001 mol/L</tspan>
       <tspan style="font-family:Arial;font-size:5.25px;font-style:regular;font-weight:regular;" x="39.32257" y="-5.975000000000001">3</tspan>
      </text>
     </g>
    </g>
    <g id="line2d_67">
     <path d="M 113.195 109.836797 
L 128.195 109.836797 
" style="fill:none;stroke:#80ffb4;stroke-linecap:square;stroke-width:0.85;"/>
    </g>
    <g id="line2d_68">
     <g>
      <use style="fill:#80ffb4;" x="120.695" xlink:href="#mc6a7711037" y="109.836797"/>
     </g>
    </g>
    <g id="text_18">
     <!-- 0.005 mol/L$^3$ -->
     <g transform="translate(134.195 112.461797)">
      <text>
       <tspan style="font-family:Helvetica;font-size:7.5px;font-style:regular;font-weight:regular;" x="0 4.171143 6.254883 10.426025 14.597168 18.768311 20.852051 27.099609 31.270752 32.937012 35.020752" y="-0.7479687500000018">0.005 mol/L</tspan>
       <tspan style="font-family:Arial;font-size:5.25px;font-style:regular;font-weight:regular;" x="39.32257" y="-5.975000000000001">3</tspan>
      </text>
     </g>
    </g>
    <g id="line2d_69">
     <path d="M 113.195 122.811797 
L 128.195 122.811797 
" style="fill:none;stroke:#d4dd80;stroke-linecap:square;stroke-width:0.85;"/>
    </g>
    <g id="line2d_70">
     <g>
      <use style="fill:#d4dd80;" x="120.695" xlink:href="#m8fe8531251" y="122.811797"/>
     </g>
    </g>
    <g id="text_19">
     <!-- 0.01 mol/L$^3$ -->
     <g transform="translate(134.195 125.436797)">
      <text>
       <tspan style="font-family:Helvetica;font-size:7.5px;font-style:regular;font-weight:regular;" x="0 4.171143 6.254883 10.426025 14.597168 16.680908 22.928467 27.099609 28.765869 30.849609" y="-0.7479687500000018">0.01 mol/L</tspan>
       <tspan style="font-family:Arial;font-size:5.25px;font-style:regular;font-weight:regular;" x="35.151428" y="-5.975000000000001">3</tspan>
      </text>
     </g>
    </g>
    <g id="line2d_71">
     <path d="M 113.195 135.786797 
L 128.195 135.786797 
" style="fill:none;stroke:#ff7e41;stroke-linecap:square;stroke-width:0.85;"/>
    </g>
    <g id="line2d_72">
     <g>
      <use style="fill:#ff7e41;" x="120.695" xlink:href="#m82810763c3" y="135.786797"/>
     </g>
    </g>
    <g id="text_20">
     <!-- 0.05 mol/L$^3$ -->
     <g transform="translate(134.195 138.411797)">
      <text>
       <tspan style="font-family:Helvetica;font-size:7.5px;font-style:regular;font-weight:regular;" x="0 4.171143 6.254883 10.426025 14.597168 16.680908 22.928467 27.099609 28.765869 30.849609" y="-0.7479687500000018">0.05 mol/L</tspan>
       <tspan style="font-family:Arial;font-size:5.25px;font-style:regular;font-weight:regular;" x="35.151428" y="-5.975000000000001">3</tspan>
      </text>
     </g>
    </g>
    <g id="line2d_73">
     <path d="M 113.195 148.761797 
L 128.195 148.761797 
" style="fill:none;stroke:#ff0000;stroke-linecap:square;stroke-width:0.85;"/>
    </g>
    <g id="line2d_74">
     <g>
      <use style="fill:#ff0000;" x="120.695" xlink:href="#mf06dacad64" y="148.761797"/>
     </g>
    </g>
    <g id="text_21">
     <!-- 0.1 mol/L$^3$ -->
     <g transform="translate(134.195 151.386797)">
      <text>
       <tspan style="font-family:Helvetica;font-size:7.5px;font-style:regular;font-weight:regular;" x="0 4.171143 6.254883 10.426025 12.509766 18.757324 22.928467 24.594727 26.678467" y="-0.7479687500000018">0.1 mol/L</tspan>
       <tspan style="font-family:Arial;font-size:5.25px;font-style:regular;font-weight:regular;" x="30.980285" y="-5.975000000000001">3</tspan>
      </text>
     </g>
    </g>
   </g>
  </g>
 </g>
 <defs>
  <clipPath id="p7f823a2f50">
   <rect height="141.12" width="141.12" x="46.625" y="18.580078"/>
  </clipPath>
 </defs>
</svg>
