<?xml version="1.0" encoding="utf-8" standalone="no"?>
<!DOCTYPE svg PUBLIC "-//W3C//DTD SVG 1.1//EN"
  "http://www.w3.org/Graphics/SVG/1.1/DTD/svg11.dtd">
<!-- Created with matplotlib (http://matplotlib.org/) -->
<svg height="288pt" version="1.1" viewBox="0 0 288 288" width="288pt" xmlns="http://www.w3.org/2000/svg" xmlns:xlink="http://www.w3.org/1999/xlink">
 <defs>
  <style type="text/css">
*{stroke-linecap:butt;stroke-linejoin:round;}
  </style>
 </defs>
 <g id="figure_1">
  <g id="patch_1">
   <path d="M 0 288 
L 288 288 
L 288 0 
L 0 0 
z
" style="fill:none;"/>
  </g>
  <g id="axes_1">
   <g id="patch_2">
    <path d="M 57.6 230.4 
L 259.2 230.4 
L 259.2 28.8 
L 57.6 28.8 
z
" style="fill:none;"/>
   </g>
   <g id="matplotlib.axis_1">
    <g id="xtick_1">
     <g id="line2d_1">
      <defs>
       <path d="M 0 0 
L 0 3.5 
" id="ma757863d47" style="stroke:#000000;stroke-width:0.85;"/>
      </defs>
      <g>
       <use style="stroke:#000000;stroke-width:0.85;" x="57.6" xlink:href="#ma757863d47" y="230.4"/>
      </g>
     </g>
     <g id="text_1">
      <!-- 0.0 -->
      <defs>
       <path d="M 4.15625 35.296875 
Q 4.15625 48 6.765625 55.734375 
Q 9.375 63.484375 14.515625 67.671875 
Q 19.671875 71.875 27.484375 71.875 
Q 33.25 71.875 37.59375 69.546875 
Q 41.9375 67.234375 44.765625 62.859375 
Q 47.609375 58.5 49.21875 52.21875 
Q 50.828125 45.953125 50.828125 35.296875 
Q 50.828125 22.703125 48.234375 14.96875 
Q 45.65625 7.234375 40.5 3 
Q 35.359375 -1.21875 27.484375 -1.21875 
Q 17.140625 -1.21875 11.234375 6.203125 
Q 4.15625 15.140625 4.15625 35.296875 
M 13.1875 35.296875 
Q 13.1875 17.671875 17.3125 11.828125 
Q 21.4375 6 27.484375 6 
Q 33.546875 6 37.671875 11.859375 
Q 41.796875 17.71875 41.796875 35.296875 
Q 41.796875 52.984375 37.671875 58.78125 
Q 33.546875 64.59375 27.390625 64.59375 
Q 21.34375 64.59375 17.71875 59.46875 
Q 13.1875 52.9375 13.1875 35.296875 
" id="ArialMT-30"/>
       <path d="M 9.078125 0 
L 9.078125 10.015625 
L 19.09375 10.015625 
L 19.09375 0 
z
" id="ArialMT-2e"/>
      </defs>
      <g transform="translate(52.3875 242.768359)scale(0.075 -0.075)">
       <use xlink:href="#ArialMT-30"/>
       <use x="55.615234" xlink:href="#ArialMT-2e"/>
       <use x="83.398438" xlink:href="#ArialMT-30"/>
      </g>
     </g>
    </g>
    <g id="xtick_2">
     <g id="line2d_2">
      <g>
       <use style="stroke:#000000;stroke-width:0.85;" x="89.856" xlink:href="#ma757863d47" y="230.4"/>
      </g>
     </g>
     <g id="text_2">
      <!-- 0.2 -->
      <defs>
       <path d="M 50.34375 8.453125 
L 50.34375 0 
L 3.03125 0 
Q 2.9375 3.171875 4.046875 6.109375 
Q 5.859375 10.9375 9.828125 15.625 
Q 13.8125 20.3125 21.34375 26.46875 
Q 33.015625 36.03125 37.109375 41.625 
Q 41.21875 47.21875 41.21875 52.203125 
Q 41.21875 57.421875 37.46875 61 
Q 33.734375 64.59375 27.734375 64.59375 
Q 21.390625 64.59375 17.578125 60.78125 
Q 13.765625 56.984375 13.71875 50.25 
L 4.6875 51.171875 
Q 5.609375 61.28125 11.65625 66.578125 
Q 17.71875 71.875 27.9375 71.875 
Q 38.234375 71.875 44.234375 66.15625 
Q 50.25 60.453125 50.25 52 
Q 50.25 47.703125 48.484375 43.546875 
Q 46.734375 39.40625 42.65625 34.8125 
Q 38.578125 30.21875 29.109375 22.21875 
Q 21.1875 15.578125 18.9375 13.203125 
Q 16.703125 10.84375 15.234375 8.453125 
z
" id="ArialMT-32"/>
      </defs>
      <g transform="translate(84.6435 242.768359)scale(0.075 -0.075)">
       <use xlink:href="#ArialMT-30"/>
       <use x="55.615234" xlink:href="#ArialMT-2e"/>
       <use x="83.398438" xlink:href="#ArialMT-32"/>
      </g>
     </g>
    </g>
    <g id="xtick_3">
     <g id="line2d_3">
      <g>
       <use style="stroke:#000000;stroke-width:0.85;" x="122.112" xlink:href="#ma757863d47" y="230.4"/>
      </g>
     </g>
     <g id="text_3">
      <!-- 0.4 -->
      <defs>
       <path d="M 32.328125 0 
L 32.328125 17.140625 
L 1.265625 17.140625 
L 1.265625 25.203125 
L 33.9375 71.578125 
L 41.109375 71.578125 
L 41.109375 25.203125 
L 50.78125 25.203125 
L 50.78125 17.140625 
L 41.109375 17.140625 
L 41.109375 0 
z
M 32.328125 25.203125 
L 32.328125 57.46875 
L 9.90625 25.203125 
z
" id="ArialMT-34"/>
      </defs>
      <g transform="translate(116.8995 242.768359)scale(0.075 -0.075)">
       <use xlink:href="#ArialMT-30"/>
       <use x="55.615234" xlink:href="#ArialMT-2e"/>
       <use x="83.398438" xlink:href="#ArialMT-34"/>
      </g>
     </g>
    </g>
    <g id="xtick_4">
     <g id="line2d_4">
      <g>
       <use style="stroke:#000000;stroke-width:0.85;" x="154.368" xlink:href="#ma757863d47" y="230.4"/>
      </g>
     </g>
     <g id="text_4">
      <!-- 0.6 -->
      <defs>
       <path d="M 49.75 54.046875 
L 41.015625 53.375 
Q 39.84375 58.546875 37.703125 60.890625 
Q 34.125 64.65625 28.90625 64.65625 
Q 24.703125 64.65625 21.53125 62.3125 
Q 17.390625 59.28125 14.984375 53.46875 
Q 12.59375 47.65625 12.5 36.921875 
Q 15.671875 41.75 20.265625 44.09375 
Q 24.859375 46.4375 29.890625 46.4375 
Q 38.671875 46.4375 44.84375 39.96875 
Q 51.03125 33.5 51.03125 23.25 
Q 51.03125 16.5 48.125 10.71875 
Q 45.21875 4.9375 40.140625 1.859375 
Q 35.0625 -1.21875 28.609375 -1.21875 
Q 17.625 -1.21875 10.6875 6.859375 
Q 3.765625 14.9375 3.765625 33.5 
Q 3.765625 54.25 11.421875 63.671875 
Q 18.109375 71.875 29.4375 71.875 
Q 37.890625 71.875 43.28125 67.140625 
Q 48.6875 62.40625 49.75 54.046875 
M 13.875 23.1875 
Q 13.875 18.65625 15.796875 14.5 
Q 17.71875 10.359375 21.1875 8.171875 
Q 24.65625 6 28.46875 6 
Q 34.03125 6 38.03125 10.484375 
Q 42.046875 14.984375 42.046875 22.703125 
Q 42.046875 30.125 38.078125 34.390625 
Q 34.125 38.671875 28.125 38.671875 
Q 22.171875 38.671875 18.015625 34.390625 
Q 13.875 30.125 13.875 23.1875 
" id="ArialMT-36"/>
      </defs>
      <g transform="translate(149.1555 242.768359)scale(0.075 -0.075)">
       <use xlink:href="#ArialMT-30"/>
       <use x="55.615234" xlink:href="#ArialMT-2e"/>
       <use x="83.398438" xlink:href="#ArialMT-36"/>
      </g>
     </g>
    </g>
    <g id="xtick_5">
     <g id="line2d_5">
      <g>
       <use style="stroke:#000000;stroke-width:0.85;" x="186.624" xlink:href="#ma757863d47" y="230.4"/>
      </g>
     </g>
     <g id="text_5">
      <!-- 0.8 -->
      <defs>
       <path d="M 17.671875 38.8125 
Q 12.203125 40.828125 9.5625 44.53125 
Q 6.9375 48.25 6.9375 53.421875 
Q 6.9375 61.234375 12.546875 66.546875 
Q 18.171875 71.875 27.484375 71.875 
Q 36.859375 71.875 42.578125 66.421875 
Q 48.296875 60.984375 48.296875 53.171875 
Q 48.296875 48.1875 45.671875 44.5 
Q 43.0625 40.828125 37.75 38.8125 
Q 44.34375 36.671875 47.78125 31.875 
Q 51.21875 27.09375 51.21875 20.453125 
Q 51.21875 11.28125 44.71875 5.03125 
Q 38.234375 -1.21875 27.640625 -1.21875 
Q 17.046875 -1.21875 10.546875 5.046875 
Q 4.046875 11.328125 4.046875 20.703125 
Q 4.046875 27.6875 7.59375 32.390625 
Q 11.140625 37.109375 17.671875 38.8125 
M 15.921875 53.71875 
Q 15.921875 48.640625 19.1875 45.40625 
Q 22.46875 42.1875 27.6875 42.1875 
Q 32.765625 42.1875 36.015625 45.375 
Q 39.265625 48.578125 39.265625 53.21875 
Q 39.265625 58.0625 35.90625 61.359375 
Q 32.5625 64.65625 27.59375 64.65625 
Q 22.5625 64.65625 19.234375 61.421875 
Q 15.921875 58.203125 15.921875 53.71875 
M 13.09375 20.65625 
Q 13.09375 16.890625 14.875 13.375 
Q 16.65625 9.859375 20.171875 7.921875 
Q 23.6875 6 27.734375 6 
Q 34.03125 6 38.125 10.046875 
Q 42.234375 14.109375 42.234375 20.359375 
Q 42.234375 26.703125 38.015625 30.859375 
Q 33.796875 35.015625 27.4375 35.015625 
Q 21.234375 35.015625 17.15625 30.90625 
Q 13.09375 26.8125 13.09375 20.65625 
" id="ArialMT-38"/>
      </defs>
      <g transform="translate(181.4115 242.768359)scale(0.075 -0.075)">
       <use xlink:href="#ArialMT-30"/>
       <use x="55.615234" xlink:href="#ArialMT-2e"/>
       <use x="83.398438" xlink:href="#ArialMT-38"/>
      </g>
     </g>
    </g>
    <g id="xtick_6">
     <g id="line2d_6">
      <g>
       <use style="stroke:#000000;stroke-width:0.85;" x="218.88" xlink:href="#ma757863d47" y="230.4"/>
      </g>
     </g>
     <g id="text_6">
      <!-- 1.0 -->
      <defs>
       <path d="M 37.25 0 
L 28.46875 0 
L 28.46875 56 
Q 25.296875 52.984375 20.140625 49.953125 
Q 14.984375 46.921875 10.890625 45.40625 
L 10.890625 53.90625 
Q 18.265625 57.375 23.78125 62.296875 
Q 29.296875 67.234375 31.59375 71.875 
L 37.25 71.875 
z
" id="ArialMT-31"/>
      </defs>
      <g transform="translate(213.6675 242.768359)scale(0.075 -0.075)">
       <use xlink:href="#ArialMT-31"/>
       <use x="55.615234" xlink:href="#ArialMT-2e"/>
       <use x="83.398438" xlink:href="#ArialMT-30"/>
      </g>
     </g>
    </g>
    <g id="xtick_7">
     <g id="line2d_7">
      <g>
       <use style="stroke:#000000;stroke-width:0.85;" x="251.136" xlink:href="#ma757863d47" y="230.4"/>
      </g>
     </g>
     <g id="text_7">
      <!-- 1.2 -->
      <g transform="translate(245.9235 242.768359)scale(0.075 -0.075)">
       <use xlink:href="#ArialMT-31"/>
       <use x="55.615234" xlink:href="#ArialMT-2e"/>
       <use x="83.398438" xlink:href="#ArialMT-32"/>
      </g>
     </g>
    </g>
    <g id="text_8">
     <!-- True $V_{g}$ (V) -->
     <defs>
      <path d="M 25.921875 0 
L 25.921875 63.140625 
L 2.34375 63.140625 
L 2.34375 71.578125 
L 59.078125 71.578125 
L 59.078125 63.140625 
L 35.40625 63.140625 
L 35.40625 0 
z
" id="ArialMT-54"/>
      <path d="M 6.5 0 
L 6.5 51.859375 
L 14.40625 51.859375 
L 14.40625 44 
Q 17.4375 49.515625 20 51.265625 
Q 22.5625 53.03125 25.640625 53.03125 
Q 30.078125 53.03125 34.671875 50.203125 
L 31.640625 42.046875 
Q 28.421875 43.953125 25.203125 43.953125 
Q 22.3125 43.953125 20.015625 42.21875 
Q 17.71875 40.484375 16.75 37.40625 
Q 15.28125 32.71875 15.28125 27.15625 
L 15.28125 0 
z
" id="ArialMT-72"/>
      <path d="M 40.578125 0 
L 40.578125 7.625 
Q 34.515625 -1.171875 24.125 -1.171875 
Q 19.53125 -1.171875 15.546875 0.578125 
Q 11.578125 2.34375 9.640625 5 
Q 7.71875 7.671875 6.9375 11.53125 
Q 6.390625 14.109375 6.390625 19.734375 
L 6.390625 51.859375 
L 15.1875 51.859375 
L 15.1875 23.09375 
Q 15.1875 16.21875 15.71875 13.8125 
Q 16.546875 10.359375 19.234375 8.375 
Q 21.921875 6.390625 25.875 6.390625 
Q 29.828125 6.390625 33.296875 8.421875 
Q 36.765625 10.453125 38.203125 13.9375 
Q 39.65625 17.4375 39.65625 24.078125 
L 39.65625 51.859375 
L 48.4375 51.859375 
L 48.4375 0 
z
" id="ArialMT-75"/>
      <path d="M 42.09375 16.703125 
L 51.171875 15.578125 
Q 49.03125 7.625 43.21875 3.21875 
Q 37.40625 -1.171875 28.375 -1.171875 
Q 17 -1.171875 10.328125 5.828125 
Q 3.65625 12.84375 3.65625 25.484375 
Q 3.65625 38.578125 10.390625 45.796875 
Q 17.140625 53.03125 27.875 53.03125 
Q 38.28125 53.03125 44.875 45.953125 
Q 51.46875 38.875 51.46875 26.03125 
Q 51.46875 25.25 51.421875 23.6875 
L 12.75 23.6875 
Q 13.234375 15.140625 17.578125 10.59375 
Q 21.921875 6.0625 28.421875 6.0625 
Q 33.25 6.0625 36.671875 8.59375 
Q 40.09375 11.140625 42.09375 16.703125 
M 13.234375 30.90625 
L 42.1875 30.90625 
Q 41.609375 37.453125 38.875 40.71875 
Q 34.671875 45.796875 27.984375 45.796875 
Q 21.921875 45.796875 17.796875 41.75 
Q 13.671875 37.703125 13.234375 30.90625 
" id="ArialMT-65"/>
      <path id="ArialMT-20"/>
      <path d="M 26.171875 0 
L 12.40625 71.578125 
L 21.625 71.578125 
L 29.9375 28.90625 
Q 32.234375 17.28125 32.90625 10.15625 
Q 37.40625 19.34375 40.28125 24.703125 
L 65.828125 71.578125 
L 75.6875 71.578125 
L 36.421875 0 
z
" id="Arial-ItalicMT-56"/>
      <path d="M 2.828125 -4.6875 
L 11.765625 -5.515625 
Q 11.671875 -8.546875 12.5 -10.0625 
Q 13.328125 -11.578125 15.140625 -12.40625 
Q 17.53125 -13.484375 21.34375 -13.484375 
Q 29.34375 -13.484375 32.859375 -9.328125 
Q 35.15625 -6.546875 37.109375 2.78125 
L 37.984375 6.984375 
Q 31.109375 0 23.34375 0 
Q 15.484375 0 10.1875 5.78125 
Q 4.890625 11.578125 4.890625 22.171875 
Q 4.890625 30.90625 9.0625 38.234375 
Q 13.234375 45.5625 18.984375 49.296875 
Q 24.75 53.03125 30.859375 53.03125 
Q 41.0625 53.03125 46.578125 43.359375 
L 48.34375 51.859375 
L 56.453125 51.859375 
L 46 1.8125 
Q 44.28125 -6.453125 41.5 -11.0625 
Q 38.71875 -15.671875 33.765625 -18.203125 
Q 28.8125 -20.75 22.3125 -20.75 
Q 16.0625 -20.75 11.546875 -19.140625 
Q 7.03125 -17.53125 4.8125 -14.421875 
Q 2.59375 -11.328125 2.59375 -7.328125 
Q 2.59375 -6.109375 2.828125 -4.6875 
M 13.875 22.953125 
Q 13.875 17.625 14.890625 14.9375 
Q 16.359375 11.1875 19.0625 9.203125 
Q 21.78125 7.234375 25.09375 7.234375 
Q 29.4375 7.234375 33.734375 10.28125 
Q 38.03125 13.328125 40.6875 19.71875 
Q 43.359375 26.125 43.359375 31.9375 
Q 43.359375 38.328125 39.8125 42.109375 
Q 36.28125 45.90625 31.0625 45.90625 
Q 27.828125 45.90625 24.796875 44.171875 
Q 21.78125 42.4375 19.15625 38.890625 
Q 16.546875 35.359375 15.203125 30.421875 
Q 13.875 25.484375 13.875 22.953125 
" id="Arial-ItalicMT-67"/>
      <path d="M 23.390625 -21.046875 
Q 16.109375 -11.859375 11.078125 0.4375 
Q 6.0625 12.75 6.0625 25.921875 
Q 6.0625 37.546875 9.8125 48.1875 
Q 14.203125 60.546875 23.390625 72.796875 
L 29.6875 72.796875 
Q 23.78125 62.640625 21.875 58.296875 
Q 18.890625 51.5625 17.1875 44.234375 
Q 15.09375 35.109375 15.09375 25.875 
Q 15.09375 2.390625 29.6875 -21.046875 
z
" id="ArialMT-28"/>
      <path d="M 28.171875 0 
L 0.4375 71.578125 
L 10.6875 71.578125 
L 29.296875 19.578125 
Q 31.546875 13.328125 33.0625 7.859375 
Q 34.71875 13.71875 36.921875 19.578125 
L 56.25 71.578125 
L 65.921875 71.578125 
L 37.890625 0 
z
" id="ArialMT-56"/>
      <path d="M 12.359375 -21.046875 
L 6.0625 -21.046875 
Q 20.65625 2.390625 20.65625 25.875 
Q 20.65625 35.0625 18.5625 44.09375 
Q 16.890625 51.421875 13.921875 58.15625 
Q 12.015625 62.546875 6.0625 72.796875 
L 12.359375 72.796875 
Q 21.53125 60.546875 25.921875 48.1875 
Q 29.6875 37.546875 29.6875 25.921875 
Q 29.6875 12.75 24.625 0.4375 
Q 19.578125 -11.859375 12.359375 -21.046875 
" id="ArialMT-29"/>
     </defs>
     <g transform="translate(139.425 256.733984)scale(0.075 -0.075)">
      <use transform="translate(0 0.203125)" xlink:href="#ArialMT-54"/>
      <use transform="translate(61.083984 0.203125)" xlink:href="#ArialMT-72"/>
      <use transform="translate(94.384766 0.203125)" xlink:href="#ArialMT-75"/>
      <use transform="translate(150 0.203125)" xlink:href="#ArialMT-65"/>
      <use transform="translate(205.615234 0.203125)" xlink:href="#ArialMT-20"/>
      <use transform="translate(233.398438 0.203125)" xlink:href="#Arial-ItalicMT-56"/>
      <use transform="translate(300.097656 -29.665625)scale(0.7)" xlink:href="#Arial-ItalicMT-67"/>
      <use transform="translate(344.006445 0.203125)" xlink:href="#ArialMT-20"/>
      <use transform="translate(371.789648 0.203125)" xlink:href="#ArialMT-28"/>
      <use transform="translate(405.09043 0.203125)" xlink:href="#ArialMT-56"/>
      <use transform="translate(471.789648 0.203125)" xlink:href="#ArialMT-29"/>
     </g>
    </g>
   </g>
   <g id="matplotlib.axis_2">
    <g id="ytick_1">
     <g id="line2d_8">
      <defs>
       <path d="M 0 0 
L -3.5 0 
" id="m6079a8053b" style="stroke:#000000;stroke-width:0.85;"/>
      </defs>
      <g>
       <use style="stroke:#000000;stroke-width:0.85;" x="57.6" xlink:href="#m6079a8053b" y="212.881052"/>
      </g>
     </g>
     <g id="text_9">
      <!-- ${10^{-3}}$ -->
      <defs>
       <path d="M 52.828125 31.203125 
L 5.5625 31.203125 
L 5.5625 39.40625 
L 52.828125 39.40625 
z
" id="ArialMT-2212"/>
       <path d="M 4.203125 18.890625 
L 12.984375 20.0625 
Q 14.5 12.59375 18.140625 9.296875 
Q 21.78125 6 27 6 
Q 33.203125 6 37.46875 10.296875 
Q 41.75 14.59375 41.75 20.953125 
Q 41.75 27 37.796875 30.921875 
Q 33.84375 34.859375 27.734375 34.859375 
Q 25.25 34.859375 21.53125 33.890625 
L 22.515625 41.609375 
Q 23.390625 41.5 23.921875 41.5 
Q 29.546875 41.5 34.03125 44.421875 
Q 38.53125 47.359375 38.53125 53.46875 
Q 38.53125 58.296875 35.25 61.46875 
Q 31.984375 64.65625 26.8125 64.65625 
Q 21.6875 64.65625 18.265625 61.421875 
Q 14.84375 58.203125 13.875 51.765625 
L 5.078125 53.328125 
Q 6.6875 62.15625 12.390625 67.015625 
Q 18.109375 71.875 26.609375 71.875 
Q 32.46875 71.875 37.390625 69.359375 
Q 42.328125 66.84375 44.9375 62.5 
Q 47.5625 58.15625 47.5625 53.265625 
Q 47.5625 48.640625 45.0625 44.828125 
Q 42.578125 41.015625 37.703125 38.765625 
Q 44.046875 37.3125 47.5625 32.6875 
Q 51.078125 28.078125 51.078125 21.140625 
Q 51.078125 11.765625 44.234375 5.25 
Q 37.40625 -1.265625 26.953125 -1.265625 
Q 17.53125 -1.265625 11.296875 4.34375 
Q 5.078125 9.96875 4.203125 18.890625 
" id="ArialMT-33"/>
      </defs>
      <g transform="translate(35.75 216.74824)scale(0.075 -0.075)">
       <use transform="translate(0 0.99375)" xlink:href="#ArialMT-31"/>
       <use transform="translate(55.615234 0.99375)" xlink:href="#ArialMT-30"/>
       <use transform="translate(112.972813 70.6875)scale(0.7)" xlink:href="#ArialMT-2212"/>
       <use transform="translate(153.851719 70.6875)scale(0.7)" xlink:href="#ArialMT-33"/>
      </g>
     </g>
    </g>
    <g id="ytick_2">
     <g id="line2d_9">
      <g>
       <use style="stroke:#000000;stroke-width:0.85;" x="57.6" xlink:href="#m6079a8053b" y="169.009782"/>
      </g>
     </g>
     <g id="text_10">
      <!-- ${10^{-2}}$ -->
      <g transform="translate(35.75 172.87697)scale(0.075 -0.075)">
       <use transform="translate(0 0.99375)" xlink:href="#ArialMT-31"/>
       <use transform="translate(55.615234 0.99375)" xlink:href="#ArialMT-30"/>
       <use transform="translate(112.972813 70.6875)scale(0.7)" xlink:href="#ArialMT-2212"/>
       <use transform="translate(153.851719 70.6875)scale(0.7)" xlink:href="#ArialMT-32"/>
      </g>
     </g>
    </g>
    <g id="ytick_3">
     <g id="line2d_10">
      <g>
       <use style="stroke:#000000;stroke-width:0.85;" x="57.6" xlink:href="#m6079a8053b" y="125.138512"/>
      </g>
     </g>
     <g id="text_11">
      <!-- ${10^{-1}}$ -->
      <g transform="translate(35.75 129.0057)scale(0.075 -0.075)">
       <use transform="translate(0 0.99375)" xlink:href="#ArialMT-31"/>
       <use transform="translate(55.615234 0.99375)" xlink:href="#ArialMT-30"/>
       <use transform="translate(112.972813 70.6875)scale(0.7)" xlink:href="#ArialMT-2212"/>
       <use transform="translate(153.851719 70.6875)scale(0.7)" xlink:href="#ArialMT-31"/>
      </g>
     </g>
    </g>
    <g id="ytick_4">
     <g id="line2d_11">
      <g>
       <use style="stroke:#000000;stroke-width:0.85;" x="57.6" xlink:href="#m6079a8053b" y="81.267243"/>
      </g>
     </g>
     <g id="text_12">
      <!-- ${10^{0}}$ -->
      <g transform="translate(38.825 85.13443)scale(0.075 -0.075)">
       <use transform="translate(0 0.99375)" xlink:href="#ArialMT-31"/>
       <use transform="translate(55.615234 0.99375)" xlink:href="#ArialMT-30"/>
       <use transform="translate(112.972813 70.6875)scale(0.7)" xlink:href="#ArialMT-30"/>
      </g>
     </g>
    </g>
    <g id="ytick_5">
     <g id="line2d_12">
      <g>
       <use style="stroke:#000000;stroke-width:0.85;" x="57.6" xlink:href="#m6079a8053b" y="37.395973"/>
      </g>
     </g>
     <g id="text_13">
      <!-- ${10^{1}}$ -->
      <g transform="translate(38.825 41.26316)scale(0.075 -0.075)">
       <use transform="translate(0 0.99375)" xlink:href="#ArialMT-31"/>
       <use transform="translate(55.615234 0.99375)" xlink:href="#ArialMT-30"/>
       <use transform="translate(112.972813 70.6875)scale(0.7)" xlink:href="#ArialMT-31"/>
      </g>
     </g>
    </g>
    <g id="ytick_6">
     <g id="line2d_13">
      <defs>
       <path d="M 0 0 
L -1.8 0 
" id="m08d5050c03" style="stroke:#000000;stroke-width:0.85;"/>
      </defs>
      <g>
       <use style="stroke:#000000;stroke-width:0.85;" x="57.6" xlink:href="#m08d5050c03" y="230.339186"/>
      </g>
     </g>
    </g>
    <g id="ytick_7">
     <g id="line2d_14">
      <g>
       <use style="stroke:#000000;stroke-width:0.85;" x="57.6" xlink:href="#m08d5050c03" y="226.08762"/>
      </g>
     </g>
    </g>
    <g id="ytick_8">
     <g id="line2d_15">
      <g>
       <use style="stroke:#000000;stroke-width:0.85;" x="57.6" xlink:href="#m08d5050c03" y="222.613838"/>
      </g>
     </g>
    </g>
    <g id="ytick_9">
     <g id="line2d_16">
      <g>
       <use style="stroke:#000000;stroke-width:0.85;" x="57.6" xlink:href="#m08d5050c03" y="219.676798"/>
      </g>
     </g>
    </g>
    <g id="ytick_10">
     <g id="line2d_17">
      <g>
       <use style="stroke:#000000;stroke-width:0.85;" x="57.6" xlink:href="#m08d5050c03" y="217.132617"/>
      </g>
     </g>
    </g>
    <g id="ytick_11">
     <g id="line2d_18">
      <g>
       <use style="stroke:#000000;stroke-width:0.85;" x="57.6" xlink:href="#m08d5050c03" y="214.888491"/>
      </g>
     </g>
    </g>
    <g id="ytick_12">
     <g id="line2d_19">
      <g>
       <use style="stroke:#000000;stroke-width:0.85;" x="57.6" xlink:href="#m08d5050c03" y="199.674484"/>
      </g>
     </g>
    </g>
    <g id="ytick_13">
     <g id="line2d_20">
      <g>
       <use style="stroke:#000000;stroke-width:0.85;" x="57.6" xlink:href="#m08d5050c03" y="191.949137"/>
      </g>
     </g>
    </g>
    <g id="ytick_14">
     <g id="line2d_21">
      <g>
       <use style="stroke:#000000;stroke-width:0.85;" x="57.6" xlink:href="#m08d5050c03" y="186.467916"/>
      </g>
     </g>
    </g>
    <g id="ytick_15">
     <g id="line2d_22">
      <g>
       <use style="stroke:#000000;stroke-width:0.85;" x="57.6" xlink:href="#m08d5050c03" y="182.21635"/>
      </g>
     </g>
    </g>
    <g id="ytick_16">
     <g id="line2d_23">
      <g>
       <use style="stroke:#000000;stroke-width:0.85;" x="57.6" xlink:href="#m08d5050c03" y="178.742569"/>
      </g>
     </g>
    </g>
    <g id="ytick_17">
     <g id="line2d_24">
      <g>
       <use style="stroke:#000000;stroke-width:0.85;" x="57.6" xlink:href="#m08d5050c03" y="175.805528"/>
      </g>
     </g>
    </g>
    <g id="ytick_18">
     <g id="line2d_25">
      <g>
       <use style="stroke:#000000;stroke-width:0.85;" x="57.6" xlink:href="#m08d5050c03" y="173.261348"/>
      </g>
     </g>
    </g>
    <g id="ytick_19">
     <g id="line2d_26">
      <g>
       <use style="stroke:#000000;stroke-width:0.85;" x="57.6" xlink:href="#m08d5050c03" y="171.017221"/>
      </g>
     </g>
    </g>
    <g id="ytick_20">
     <g id="line2d_27">
      <g>
       <use style="stroke:#000000;stroke-width:0.85;" x="57.6" xlink:href="#m08d5050c03" y="155.803214"/>
      </g>
     </g>
    </g>
    <g id="ytick_21">
     <g id="line2d_28">
      <g>
       <use style="stroke:#000000;stroke-width:0.85;" x="57.6" xlink:href="#m08d5050c03" y="148.077867"/>
      </g>
     </g>
    </g>
    <g id="ytick_22">
     <g id="line2d_29">
      <g>
       <use style="stroke:#000000;stroke-width:0.85;" x="57.6" xlink:href="#m08d5050c03" y="142.596646"/>
      </g>
     </g>
    </g>
    <g id="ytick_23">
     <g id="line2d_30">
      <g>
       <use style="stroke:#000000;stroke-width:0.85;" x="57.6" xlink:href="#m08d5050c03" y="138.345081"/>
      </g>
     </g>
    </g>
    <g id="ytick_24">
     <g id="line2d_31">
      <g>
       <use style="stroke:#000000;stroke-width:0.85;" x="57.6" xlink:href="#m08d5050c03" y="134.871299"/>
      </g>
     </g>
    </g>
    <g id="ytick_25">
     <g id="line2d_32">
      <g>
       <use style="stroke:#000000;stroke-width:0.85;" x="57.6" xlink:href="#m08d5050c03" y="131.934258"/>
      </g>
     </g>
    </g>
    <g id="ytick_26">
     <g id="line2d_33">
      <g>
       <use style="stroke:#000000;stroke-width:0.85;" x="57.6" xlink:href="#m08d5050c03" y="129.390078"/>
      </g>
     </g>
    </g>
    <g id="ytick_27">
     <g id="line2d_34">
      <g>
       <use style="stroke:#000000;stroke-width:0.85;" x="57.6" xlink:href="#m08d5050c03" y="127.145952"/>
      </g>
     </g>
    </g>
    <g id="ytick_28">
     <g id="line2d_35">
      <g>
       <use style="stroke:#000000;stroke-width:0.85;" x="57.6" xlink:href="#m08d5050c03" y="111.931944"/>
      </g>
     </g>
    </g>
    <g id="ytick_29">
     <g id="line2d_36">
      <g>
       <use style="stroke:#000000;stroke-width:0.85;" x="57.6" xlink:href="#m08d5050c03" y="104.206597"/>
      </g>
     </g>
    </g>
    <g id="ytick_30">
     <g id="line2d_37">
      <g>
       <use style="stroke:#000000;stroke-width:0.85;" x="57.6" xlink:href="#m08d5050c03" y="98.725376"/>
      </g>
     </g>
    </g>
    <g id="ytick_31">
     <g id="line2d_38">
      <g>
       <use style="stroke:#000000;stroke-width:0.85;" x="57.6" xlink:href="#m08d5050c03" y="94.473811"/>
      </g>
     </g>
    </g>
    <g id="ytick_32">
     <g id="line2d_39">
      <g>
       <use style="stroke:#000000;stroke-width:0.85;" x="57.6" xlink:href="#m08d5050c03" y="91.000029"/>
      </g>
     </g>
    </g>
    <g id="ytick_33">
     <g id="line2d_40">
      <g>
       <use style="stroke:#000000;stroke-width:0.85;" x="57.6" xlink:href="#m08d5050c03" y="88.062988"/>
      </g>
     </g>
    </g>
    <g id="ytick_34">
     <g id="line2d_41">
      <g>
       <use style="stroke:#000000;stroke-width:0.85;" x="57.6" xlink:href="#m08d5050c03" y="85.518808"/>
      </g>
     </g>
    </g>
    <g id="ytick_35">
     <g id="line2d_42">
      <g>
       <use style="stroke:#000000;stroke-width:0.85;" x="57.6" xlink:href="#m08d5050c03" y="83.274682"/>
      </g>
     </g>
    </g>
    <g id="ytick_36">
     <g id="line2d_43">
      <g>
       <use style="stroke:#000000;stroke-width:0.85;" x="57.6" xlink:href="#m08d5050c03" y="68.060674"/>
      </g>
     </g>
    </g>
    <g id="ytick_37">
     <g id="line2d_44">
      <g>
       <use style="stroke:#000000;stroke-width:0.85;" x="57.6" xlink:href="#m08d5050c03" y="60.335327"/>
      </g>
     </g>
    </g>
    <g id="ytick_38">
     <g id="line2d_45">
      <g>
       <use style="stroke:#000000;stroke-width:0.85;" x="57.6" xlink:href="#m08d5050c03" y="54.854106"/>
      </g>
     </g>
    </g>
    <g id="ytick_39">
     <g id="line2d_46">
      <g>
       <use style="stroke:#000000;stroke-width:0.85;" x="57.6" xlink:href="#m08d5050c03" y="50.602541"/>
      </g>
     </g>
    </g>
    <g id="ytick_40">
     <g id="line2d_47">
      <g>
       <use style="stroke:#000000;stroke-width:0.85;" x="57.6" xlink:href="#m08d5050c03" y="47.128759"/>
      </g>
     </g>
    </g>
    <g id="ytick_41">
     <g id="line2d_48">
      <g>
       <use style="stroke:#000000;stroke-width:0.85;" x="57.6" xlink:href="#m08d5050c03" y="44.191718"/>
      </g>
     </g>
    </g>
    <g id="ytick_42">
     <g id="line2d_49">
      <g>
       <use style="stroke:#000000;stroke-width:0.85;" x="57.6" xlink:href="#m08d5050c03" y="41.647538"/>
      </g>
     </g>
    </g>
    <g id="ytick_43">
     <g id="line2d_50">
      <g>
       <use style="stroke:#000000;stroke-width:0.85;" x="57.6" xlink:href="#m08d5050c03" y="39.403412"/>
      </g>
     </g>
    </g>
    <g id="text_14">
     <!-- Average total flux (mol/(m$^{-2}$*s)) -->
     <defs>
      <path d="M -0.140625 0 
L 27.34375 71.578125 
L 37.546875 71.578125 
L 66.84375 0 
L 56.0625 0 
L 47.703125 21.6875 
L 17.78125 21.6875 
L 9.90625 0 
z
M 20.515625 29.390625 
L 44.78125 29.390625 
L 37.3125 49.21875 
Q 33.890625 58.25 32.234375 64.0625 
Q 30.859375 57.171875 28.375 50.390625 
z
" id="ArialMT-41"/>
      <path d="M 21 0 
L 1.265625 51.859375 
L 10.546875 51.859375 
L 21.6875 20.796875 
Q 23.484375 15.765625 25 10.359375 
Q 26.171875 14.453125 28.265625 20.21875 
L 39.796875 51.859375 
L 48.828125 51.859375 
L 29.203125 0 
z
" id="ArialMT-76"/>
      <path d="M 40.4375 6.390625 
Q 35.546875 2.25 31.03125 0.53125 
Q 26.515625 -1.171875 21.34375 -1.171875 
Q 12.796875 -1.171875 8.203125 3 
Q 3.609375 7.171875 3.609375 13.671875 
Q 3.609375 17.484375 5.34375 20.625 
Q 7.078125 23.78125 9.890625 25.6875 
Q 12.703125 27.59375 16.21875 28.5625 
Q 18.796875 29.25 24.03125 29.890625 
Q 34.671875 31.15625 39.703125 32.90625 
Q 39.75 34.71875 39.75 35.203125 
Q 39.75 40.578125 37.25 42.78125 
Q 33.890625 45.75 27.25 45.75 
Q 21.046875 45.75 18.09375 43.578125 
Q 15.140625 41.40625 13.71875 35.890625 
L 5.125 37.0625 
Q 6.296875 42.578125 8.984375 45.96875 
Q 11.671875 49.359375 16.75 51.1875 
Q 21.828125 53.03125 28.515625 53.03125 
Q 35.15625 53.03125 39.296875 51.46875 
Q 43.453125 49.90625 45.40625 47.53125 
Q 47.359375 45.171875 48.140625 41.546875 
Q 48.578125 39.3125 48.578125 33.453125 
L 48.578125 21.734375 
Q 48.578125 9.46875 49.140625 6.21875 
Q 49.703125 2.984375 51.375 0 
L 42.1875 0 
Q 40.828125 2.734375 40.4375 6.390625 
M 39.703125 26.03125 
Q 34.90625 24.078125 25.34375 22.703125 
Q 19.921875 21.921875 17.671875 20.9375 
Q 15.4375 19.96875 14.203125 18.09375 
Q 12.984375 16.21875 12.984375 13.921875 
Q 12.984375 10.40625 15.640625 8.0625 
Q 18.3125 5.71875 23.4375 5.71875 
Q 28.515625 5.71875 32.46875 7.9375 
Q 36.421875 10.15625 38.28125 14.015625 
Q 39.703125 17 39.703125 22.796875 
z
" id="ArialMT-61"/>
      <path d="M 4.984375 -4.296875 
L 13.53125 -5.5625 
Q 14.0625 -9.515625 16.5 -11.328125 
Q 19.78125 -13.765625 25.4375 -13.765625 
Q 31.546875 -13.765625 34.859375 -11.328125 
Q 38.1875 -8.890625 39.359375 -4.5 
Q 40.046875 -1.8125 39.984375 6.78125 
Q 34.234375 0 25.640625 0 
Q 14.9375 0 9.078125 7.71875 
Q 3.21875 15.4375 3.21875 26.21875 
Q 3.21875 33.640625 5.90625 39.90625 
Q 8.59375 46.1875 13.6875 49.609375 
Q 18.796875 53.03125 25.6875 53.03125 
Q 34.859375 53.03125 40.828125 45.609375 
L 40.828125 51.859375 
L 48.921875 51.859375 
L 48.921875 7.03125 
Q 48.921875 -5.078125 46.453125 -10.125 
Q 44 -15.1875 38.640625 -18.109375 
Q 33.296875 -21.046875 25.484375 -21.046875 
Q 16.21875 -21.046875 10.5 -16.875 
Q 4.78125 -12.703125 4.984375 -4.296875 
M 12.25 26.859375 
Q 12.25 16.65625 16.296875 11.96875 
Q 20.359375 7.28125 26.46875 7.28125 
Q 32.515625 7.28125 36.609375 11.9375 
Q 40.71875 16.609375 40.71875 26.5625 
Q 40.71875 36.078125 36.5 40.90625 
Q 32.28125 45.75 26.3125 45.75 
Q 20.453125 45.75 16.34375 40.984375 
Q 12.25 36.234375 12.25 26.859375 
" id="ArialMT-67"/>
      <path d="M 25.78125 7.859375 
L 27.046875 0.09375 
Q 23.34375 -0.6875 20.40625 -0.6875 
Q 15.625 -0.6875 12.984375 0.828125 
Q 10.359375 2.34375 9.28125 4.8125 
Q 8.203125 7.28125 8.203125 15.1875 
L 8.203125 45.015625 
L 1.765625 45.015625 
L 1.765625 51.859375 
L 8.203125 51.859375 
L 8.203125 64.703125 
L 16.9375 69.96875 
L 16.9375 51.859375 
L 25.78125 51.859375 
L 25.78125 45.015625 
L 16.9375 45.015625 
L 16.9375 14.703125 
Q 16.9375 10.9375 17.40625 9.859375 
Q 17.875 8.796875 18.921875 8.15625 
Q 19.96875 7.515625 21.921875 7.515625 
Q 23.390625 7.515625 25.78125 7.859375 
" id="ArialMT-74"/>
      <path d="M 3.328125 25.921875 
Q 3.328125 40.328125 11.328125 47.265625 
Q 18.015625 53.03125 27.640625 53.03125 
Q 38.328125 53.03125 45.109375 46.015625 
Q 51.90625 39.015625 51.90625 26.65625 
Q 51.90625 16.65625 48.90625 10.90625 
Q 45.90625 5.171875 40.15625 2 
Q 34.421875 -1.171875 27.640625 -1.171875 
Q 16.75 -1.171875 10.03125 5.8125 
Q 3.328125 12.796875 3.328125 25.921875 
M 12.359375 25.921875 
Q 12.359375 15.96875 16.703125 11.015625 
Q 21.046875 6.0625 27.640625 6.0625 
Q 34.1875 6.0625 38.53125 11.03125 
Q 42.875 16.015625 42.875 26.21875 
Q 42.875 35.84375 38.5 40.796875 
Q 34.125 45.75 27.640625 45.75 
Q 21.046875 45.75 16.703125 40.8125 
Q 12.359375 35.890625 12.359375 25.921875 
" id="ArialMT-6f"/>
      <path d="M 6.390625 0 
L 6.390625 71.578125 
L 15.1875 71.578125 
L 15.1875 0 
z
" id="ArialMT-6c"/>
      <path d="M 8.6875 0 
L 8.6875 45.015625 
L 0.921875 45.015625 
L 0.921875 51.859375 
L 8.6875 51.859375 
L 8.6875 57.375 
Q 8.6875 62.59375 9.625 65.140625 
Q 10.890625 68.5625 14.078125 70.671875 
Q 17.28125 72.796875 23.046875 72.796875 
Q 26.765625 72.796875 31.25 71.921875 
L 29.9375 64.265625 
Q 27.203125 64.75 24.75 64.75 
Q 20.75 64.75 19.09375 63.03125 
Q 17.4375 61.328125 17.4375 56.640625 
L 17.4375 51.859375 
L 27.546875 51.859375 
L 27.546875 45.015625 
L 17.4375 45.015625 
L 17.4375 0 
z
" id="ArialMT-66"/>
      <path d="M 0.734375 0 
L 19.671875 26.953125 
L 2.15625 51.859375 
L 13.140625 51.859375 
L 21.09375 39.703125 
Q 23.34375 36.234375 24.703125 33.890625 
Q 26.859375 37.109375 28.65625 39.59375 
L 37.40625 51.859375 
L 47.90625 51.859375 
L 29.984375 27.4375 
L 49.265625 0 
L 38.484375 0 
L 27.828125 16.109375 
L 25 20.453125 
L 11.375 0 
z
" id="ArialMT-78"/>
      <path d="M 6.59375 0 
L 6.59375 51.859375 
L 14.453125 51.859375 
L 14.453125 44.578125 
Q 16.890625 48.390625 20.9375 50.703125 
Q 25 53.03125 30.171875 53.03125 
Q 35.9375 53.03125 39.625 50.640625 
Q 43.3125 48.25 44.828125 43.953125 
Q 50.984375 53.03125 60.84375 53.03125 
Q 68.5625 53.03125 72.703125 48.75 
Q 76.859375 44.484375 76.859375 35.59375 
L 76.859375 0 
L 68.109375 0 
L 68.109375 32.671875 
Q 68.109375 37.9375 67.25 40.25 
Q 66.40625 42.578125 64.15625 43.984375 
Q 61.921875 45.40625 58.890625 45.40625 
Q 53.421875 45.40625 49.796875 41.765625 
Q 46.1875 38.140625 46.1875 30.125 
L 46.1875 0 
L 37.40625 0 
L 37.40625 33.6875 
Q 37.40625 39.546875 35.25 42.46875 
Q 33.109375 45.40625 28.21875 45.40625 
Q 24.515625 45.40625 21.359375 43.453125 
Q 18.21875 41.5 16.796875 37.734375 
Q 15.375 33.984375 15.375 26.90625 
L 15.375 0 
z
" id="ArialMT-6d"/>
      <path d="M 0 -1.21875 
L 20.75 72.796875 
L 27.78125 72.796875 
L 7.078125 -1.21875 
z
" id="ArialMT-2f"/>
      <path d="M 3.125 58.453125 
L 5.375 65.375 
Q 13.140625 62.640625 16.65625 60.640625 
Q 15.71875 69.484375 15.671875 72.796875 
L 22.75 72.796875 
Q 22.609375 67.96875 21.625 60.6875 
Q 26.65625 63.234375 33.15625 65.375 
L 35.40625 58.453125 
Q 29.203125 56.390625 23.25 55.71875 
Q 26.21875 53.125 31.640625 46.484375 
L 25.78125 42.328125 
Q 22.953125 46.1875 19.09375 52.828125 
Q 15.484375 45.953125 12.75 42.328125 
L 6.984375 46.484375 
Q 12.640625 53.46875 15.09375 55.71875 
Q 8.796875 56.9375 3.125 58.453125 
" id="ArialMT-2a"/>
      <path d="M 3.078125 15.484375 
L 11.765625 16.84375 
Q 12.5 11.625 15.84375 8.84375 
Q 19.1875 6.0625 25.203125 6.0625 
Q 31.25 6.0625 34.171875 8.515625 
Q 37.109375 10.984375 37.109375 14.3125 
Q 37.109375 17.28125 34.515625 19 
Q 32.71875 20.171875 25.53125 21.96875 
Q 15.875 24.421875 12.140625 26.203125 
Q 8.40625 27.984375 6.46875 31.125 
Q 4.546875 34.28125 4.546875 38.09375 
Q 4.546875 41.546875 6.125 44.5 
Q 7.71875 47.46875 10.453125 49.421875 
Q 12.5 50.921875 16.03125 51.96875 
Q 19.578125 53.03125 23.640625 53.03125 
Q 29.734375 53.03125 34.34375 51.265625 
Q 38.96875 49.515625 41.15625 46.5 
Q 43.359375 43.5 44.1875 38.484375 
L 35.59375 37.3125 
Q 35.015625 41.3125 32.203125 43.546875 
Q 29.390625 45.796875 24.265625 45.796875 
Q 18.21875 45.796875 15.625 43.796875 
Q 13.03125 41.796875 13.03125 39.109375 
Q 13.03125 37.40625 14.109375 36.03125 
Q 15.1875 34.625 17.484375 33.6875 
Q 18.796875 33.203125 25.25 31.453125 
Q 34.578125 28.953125 38.25 27.359375 
Q 41.9375 25.78125 44.03125 22.75 
Q 46.140625 19.734375 46.140625 15.234375 
Q 46.140625 10.84375 43.578125 6.953125 
Q 41.015625 3.078125 36.171875 0.953125 
Q 31.34375 -1.171875 25.25 -1.171875 
Q 15.140625 -1.171875 9.84375 3.03125 
Q 4.546875 7.234375 3.078125 15.484375 
" id="ArialMT-73"/>
     </defs>
     <g transform="translate(27.1 181.425)rotate(-90)scale(0.075 -0.075)">
      <use transform="translate(0 0.99375)" xlink:href="#ArialMT-41"/>
      <use transform="translate(66.699219 0.99375)" xlink:href="#ArialMT-76"/>
      <use transform="translate(116.699219 0.99375)" xlink:href="#ArialMT-65"/>
      <use transform="translate(172.314453 0.99375)" xlink:href="#ArialMT-72"/>
      <use transform="translate(205.615234 0.99375)" xlink:href="#ArialMT-61"/>
      <use transform="translate(261.230469 0.99375)" xlink:href="#ArialMT-67"/>
      <use transform="translate(316.845703 0.99375)" xlink:href="#ArialMT-65"/>
      <use transform="translate(372.460938 0.99375)" xlink:href="#ArialMT-20"/>
      <use transform="translate(400.244141 0.99375)" xlink:href="#ArialMT-74"/>
      <use transform="translate(428.027344 0.99375)" xlink:href="#ArialMT-6f"/>
      <use transform="translate(483.642578 0.99375)" xlink:href="#ArialMT-74"/>
      <use transform="translate(511.425781 0.99375)" xlink:href="#ArialMT-61"/>
      <use transform="translate(567.041016 0.99375)" xlink:href="#ArialMT-6c"/>
      <use transform="translate(589.257812 0.99375)" xlink:href="#ArialMT-20"/>
      <use transform="translate(617.041016 0.99375)" xlink:href="#ArialMT-66"/>
      <use transform="translate(644.824219 0.99375)" xlink:href="#ArialMT-6c"/>
      <use transform="translate(667.041016 0.99375)" xlink:href="#ArialMT-75"/>
      <use transform="translate(722.65625 0.99375)" xlink:href="#ArialMT-78"/>
      <use transform="translate(772.65625 0.99375)" xlink:href="#ArialMT-20"/>
      <use transform="translate(800.439453 0.99375)" xlink:href="#ArialMT-28"/>
      <use transform="translate(833.740234 0.99375)" xlink:href="#ArialMT-6d"/>
      <use transform="translate(917.041016 0.99375)" xlink:href="#ArialMT-6f"/>
      <use transform="translate(972.65625 0.99375)" xlink:href="#ArialMT-6c"/>
      <use transform="translate(994.873047 0.99375)" xlink:href="#ArialMT-2f"/>
      <use transform="translate(1022.65625 0.99375)" xlink:href="#ArialMT-28"/>
      <use transform="translate(1055.957031 0.99375)" xlink:href="#ArialMT-6d"/>
      <use transform="translate(1141.000156 70.6875)scale(0.7)" xlink:href="#ArialMT-2212"/>
      <use transform="translate(1181.879062 70.6875)scale(0.7)" xlink:href="#ArialMT-32"/>
      <use transform="translate(1225.787852 0.99375)" xlink:href="#ArialMT-2a"/>
      <use transform="translate(1264.703867 0.99375)" xlink:href="#ArialMT-73"/>
      <use transform="translate(1314.703867 0.99375)" xlink:href="#ArialMT-29"/>
      <use transform="translate(1348.004648 0.99375)" xlink:href="#ArialMT-29"/>
     </g>
    </g>
   </g>
   <g id="line2d_51">
    <path clip-path="url(#pc9616f41a3)" d="M 57.76128 172.964828 
L 61.632 173.840637 
L 65.664 176.80406 
L 73.728 191.070084 
L 81.792 209.573317 
L 89.856 222.735289 
L 97.92 230.4 
L 114.048 219.228463 
L 130.176 143.416434 
L 146.304 119.72504 
L 162.432 92.884688 
L 178.56 83.904297 
L 194.688 67.319665 
L 210.816 57.172721 
L 226.944 47.195257 
L 243.072 39.36685 
L 259.2 31.621561 
" style="fill:none;stroke:#1f77b4;stroke-linecap:square;stroke-width:0.85;"/>
    <defs>
     <path d="M 0 2.5 
C 0.663008 2.5 1.29895 2.236584 1.767767 1.767767 
C 2.236584 1.29895 2.5 0.663008 2.5 0 
C 2.5 -0.663008 2.236584 -1.29895 1.767767 -1.767767 
C 1.29895 -2.236584 0.663008 -2.5 0 -2.5 
C -0.663008 -2.5 -1.29895 -2.236584 -1.767767 -1.767767 
C -2.236584 -1.29895 -2.5 -0.663008 -2.5 0 
C -2.5 0.663008 -2.236584 1.29895 -1.767767 1.767767 
C -1.29895 2.236584 -0.663008 2.5 0 2.5 
z
" id="m73c69a57a9"/>
    </defs>
    <g clip-path="url(#pc9616f41a3)">
     <use style="fill:#1f77b4;" x="57.76128" xlink:href="#m73c69a57a9" y="172.964828"/>
     <use style="fill:#1f77b4;" x="61.632" xlink:href="#m73c69a57a9" y="173.840637"/>
     <use style="fill:#1f77b4;" x="65.664" xlink:href="#m73c69a57a9" y="176.80406"/>
     <use style="fill:#1f77b4;" x="73.728" xlink:href="#m73c69a57a9" y="191.070084"/>
     <use style="fill:#1f77b4;" x="81.792" xlink:href="#m73c69a57a9" y="209.573317"/>
     <use style="fill:#1f77b4;" x="89.856" xlink:href="#m73c69a57a9" y="222.735289"/>
     <use style="fill:#1f77b4;" x="97.92" xlink:href="#m73c69a57a9" y="230.4"/>
     <use style="fill:#1f77b4;" x="114.048" xlink:href="#m73c69a57a9" y="219.228463"/>
     <use style="fill:#1f77b4;" x="130.176" xlink:href="#m73c69a57a9" y="143.416434"/>
     <use style="fill:#1f77b4;" x="146.304" xlink:href="#m73c69a57a9" y="119.72504"/>
     <use style="fill:#1f77b4;" x="162.432" xlink:href="#m73c69a57a9" y="92.884688"/>
     <use style="fill:#1f77b4;" x="178.56" xlink:href="#m73c69a57a9" y="83.904297"/>
     <use style="fill:#1f77b4;" x="194.688" xlink:href="#m73c69a57a9" y="67.319665"/>
     <use style="fill:#1f77b4;" x="210.816" xlink:href="#m73c69a57a9" y="57.172721"/>
     <use style="fill:#1f77b4;" x="226.944" xlink:href="#m73c69a57a9" y="47.195257"/>
     <use style="fill:#1f77b4;" x="243.072" xlink:href="#m73c69a57a9" y="39.36685"/>
     <use style="fill:#1f77b4;" x="259.2" xlink:href="#m73c69a57a9" y="31.621561"/>
    </g>
   </g>
   <g id="line2d_52">
    <path clip-path="url(#pc9616f41a3)" d="M 57.76128 142.300299 
L 61.632 142.963313 
L 65.664 144.991252 
L 73.728 153.180071 
L 81.792 163.125492 
L 89.856 170.172089 
L 97.92 174.24161 
L 114.048 167.874463 
L 130.176 124.022099 
L 146.304 108.087507 
L 162.432 89.552027 
L 178.56 76.164329 
L 194.688 63.140904 
L 210.816 51.395173 
L 226.944 43.366307 
L 243.072 35.579151 
L 259.2 28.8 
" style="fill:none;stroke:#ff7f0e;stroke-linecap:square;stroke-width:0.85;"/>
    <defs>
     <path d="M 0 2.5 
C 0.663008 2.5 1.29895 2.236584 1.767767 1.767767 
C 2.236584 1.29895 2.5 0.663008 2.5 0 
C 2.5 -0.663008 2.236584 -1.29895 1.767767 -1.767767 
C 1.29895 -2.236584 0.663008 -2.5 0 -2.5 
C -0.663008 -2.5 -1.29895 -2.236584 -1.767767 -1.767767 
C -2.236584 -1.29895 -2.5 -0.663008 -2.5 0 
C -2.5 0.663008 -2.236584 1.29895 -1.767767 1.767767 
C -1.29895 2.236584 -0.663008 2.5 0 2.5 
z
" id="m88bac9b334"/>
    </defs>
    <g clip-path="url(#pc9616f41a3)">
     <use style="fill:#ff7f0e;" x="57.76128" xlink:href="#m88bac9b334" y="142.300299"/>
     <use style="fill:#ff7f0e;" x="61.632" xlink:href="#m88bac9b334" y="142.963313"/>
     <use style="fill:#ff7f0e;" x="65.664" xlink:href="#m88bac9b334" y="144.991252"/>
     <use style="fill:#ff7f0e;" x="73.728" xlink:href="#m88bac9b334" y="153.180071"/>
     <use style="fill:#ff7f0e;" x="81.792" xlink:href="#m88bac9b334" y="163.125492"/>
     <use style="fill:#ff7f0e;" x="89.856" xlink:href="#m88bac9b334" y="170.172089"/>
     <use style="fill:#ff7f0e;" x="97.92" xlink:href="#m88bac9b334" y="174.24161"/>
     <use style="fill:#ff7f0e;" x="114.048" xlink:href="#m88bac9b334" y="167.874463"/>
     <use style="fill:#ff7f0e;" x="130.176" xlink:href="#m88bac9b334" y="124.022099"/>
     <use style="fill:#ff7f0e;" x="146.304" xlink:href="#m88bac9b334" y="108.087507"/>
     <use style="fill:#ff7f0e;" x="162.432" xlink:href="#m88bac9b334" y="89.552027"/>
     <use style="fill:#ff7f0e;" x="178.56" xlink:href="#m88bac9b334" y="76.164329"/>
     <use style="fill:#ff7f0e;" x="194.688" xlink:href="#m88bac9b334" y="63.140904"/>
     <use style="fill:#ff7f0e;" x="210.816" xlink:href="#m88bac9b334" y="51.395173"/>
     <use style="fill:#ff7f0e;" x="226.944" xlink:href="#m88bac9b334" y="43.366307"/>
     <use style="fill:#ff7f0e;" x="243.072" xlink:href="#m88bac9b334" y="35.579151"/>
     <use style="fill:#ff7f0e;" x="259.2" xlink:href="#m88bac9b334" y="28.8"/>
    </g>
   </g>
   <g id="line2d_53">
    <path clip-path="url(#pc9616f41a3)" d="M 57.76128 129.019525 
L 61.632 129.545515 
L 65.664 131.079271 
L 73.728 136.784345 
L 81.792 143.424988 
L 89.856 148.239007 
L 97.92 151.07371 
L 114.048 153.019857 
L 130.176 148.380783 
L 146.304 135.312597 
L 162.432 129.382381 
L 178.56 121.808726 
L 194.688 111.478662 
L 210.816 106.588998 
L 226.944 104.183185 
L 243.072 95.813139 
L 259.2 87.948961 
" style="fill:none;stroke:#2ca02c;stroke-linecap:square;stroke-width:0.85;"/>
    <defs>
     <path d="M 0 2.5 
C 0.663008 2.5 1.29895 2.236584 1.767767 1.767767 
C 2.236584 1.29895 2.5 0.663008 2.5 0 
C 2.5 -0.663008 2.236584 -1.29895 1.767767 -1.767767 
C 1.29895 -2.236584 0.663008 -2.5 0 -2.5 
C -0.663008 -2.5 -1.29895 -2.236584 -1.767767 -1.767767 
C -2.236584 -1.29895 -2.5 -0.663008 -2.5 0 
C -2.5 0.663008 -2.236584 1.29895 -1.767767 1.767767 
C -1.29895 2.236584 -0.663008 2.5 0 2.5 
z
" id="m2a9c66490b"/>
    </defs>
    <g clip-path="url(#pc9616f41a3)">
     <use style="fill:#2ca02c;" x="57.76128" xlink:href="#m2a9c66490b" y="129.019525"/>
     <use style="fill:#2ca02c;" x="61.632" xlink:href="#m2a9c66490b" y="129.545515"/>
     <use style="fill:#2ca02c;" x="65.664" xlink:href="#m2a9c66490b" y="131.079271"/>
     <use style="fill:#2ca02c;" x="73.728" xlink:href="#m2a9c66490b" y="136.784345"/>
     <use style="fill:#2ca02c;" x="81.792" xlink:href="#m2a9c66490b" y="143.424988"/>
     <use style="fill:#2ca02c;" x="89.856" xlink:href="#m2a9c66490b" y="148.239007"/>
     <use style="fill:#2ca02c;" x="97.92" xlink:href="#m2a9c66490b" y="151.07371"/>
     <use style="fill:#2ca02c;" x="114.048" xlink:href="#m2a9c66490b" y="153.019857"/>
     <use style="fill:#2ca02c;" x="130.176" xlink:href="#m2a9c66490b" y="148.380783"/>
     <use style="fill:#2ca02c;" x="146.304" xlink:href="#m2a9c66490b" y="135.312597"/>
     <use style="fill:#2ca02c;" x="162.432" xlink:href="#m2a9c66490b" y="129.382381"/>
     <use style="fill:#2ca02c;" x="178.56" xlink:href="#m2a9c66490b" y="121.808726"/>
     <use style="fill:#2ca02c;" x="194.688" xlink:href="#m2a9c66490b" y="111.478662"/>
     <use style="fill:#2ca02c;" x="210.816" xlink:href="#m2a9c66490b" y="106.588998"/>
     <use style="fill:#2ca02c;" x="226.944" xlink:href="#m2a9c66490b" y="104.183185"/>
     <use style="fill:#2ca02c;" x="243.072" xlink:href="#m2a9c66490b" y="95.813139"/>
     <use style="fill:#2ca02c;" x="259.2" xlink:href="#m2a9c66490b" y="87.948961"/>
    </g>
   </g>
   <g id="line2d_54">
    <path clip-path="url(#pc9616f41a3)" d="M 57.76128 98.354802 
L 61.632 98.530537 
L 65.664 98.96521 
L 73.728 100.440399 
L 81.792 102.20173 
L 89.856 103.653415 
L 97.92 104.615003 
L 114.048 105.40355 
L 130.176 104.623553 
L 146.304 102.825333 
L 162.432 102.05571 
L 178.56 98.833541 
L 194.688 96.18638 
L 210.816 92.616797 
L 226.944 90.729902 
L 243.072 85.047094 
L 259.2 78.129656 
" style="fill:none;stroke:#d62728;stroke-linecap:square;stroke-width:0.85;"/>
    <defs>
     <path d="M 0 2.5 
C 0.663008 2.5 1.29895 2.236584 1.767767 1.767767 
C 2.236584 1.29895 2.5 0.663008 2.5 0 
C 2.5 -0.663008 2.236584 -1.29895 1.767767 -1.767767 
C 1.29895 -2.236584 0.663008 -2.5 0 -2.5 
C -0.663008 -2.5 -1.29895 -2.236584 -1.767767 -1.767767 
C -2.236584 -1.29895 -2.5 -0.663008 -2.5 0 
C -2.5 0.663008 -2.236584 1.29895 -1.767767 1.767767 
C -1.29895 2.236584 -0.663008 2.5 0 2.5 
z
" id="m1390bc64b6"/>
    </defs>
    <g clip-path="url(#pc9616f41a3)">
     <use style="fill:#d62728;" x="57.76128" xlink:href="#m1390bc64b6" y="98.354802"/>
     <use style="fill:#d62728;" x="61.632" xlink:href="#m1390bc64b6" y="98.530537"/>
     <use style="fill:#d62728;" x="65.664" xlink:href="#m1390bc64b6" y="98.96521"/>
     <use style="fill:#d62728;" x="73.728" xlink:href="#m1390bc64b6" y="100.440399"/>
     <use style="fill:#d62728;" x="81.792" xlink:href="#m1390bc64b6" y="102.20173"/>
     <use style="fill:#d62728;" x="89.856" xlink:href="#m1390bc64b6" y="103.653415"/>
     <use style="fill:#d62728;" x="97.92" xlink:href="#m1390bc64b6" y="104.615003"/>
     <use style="fill:#d62728;" x="114.048" xlink:href="#m1390bc64b6" y="105.40355"/>
     <use style="fill:#d62728;" x="130.176" xlink:href="#m1390bc64b6" y="104.623553"/>
     <use style="fill:#d62728;" x="146.304" xlink:href="#m1390bc64b6" y="102.825333"/>
     <use style="fill:#d62728;" x="162.432" xlink:href="#m1390bc64b6" y="102.05571"/>
     <use style="fill:#d62728;" x="178.56" xlink:href="#m1390bc64b6" y="98.833541"/>
     <use style="fill:#d62728;" x="194.688" xlink:href="#m1390bc64b6" y="96.18638"/>
     <use style="fill:#d62728;" x="210.816" xlink:href="#m1390bc64b6" y="92.616797"/>
     <use style="fill:#d62728;" x="226.944" xlink:href="#m1390bc64b6" y="90.729902"/>
     <use style="fill:#d62728;" x="243.072" xlink:href="#m1390bc64b6" y="85.047094"/>
     <use style="fill:#d62728;" x="259.2" xlink:href="#m1390bc64b6" y="78.129656"/>
    </g>
   </g>
   <g id="line2d_55">
    <path clip-path="url(#pc9616f41a3)" d="M 57.76128 85.148148 
L 61.632 85.249989 
L 65.664 85.468798 
L 73.728 86.199779 
L 81.792 87.118508 
L 89.856 87.927466 
L 97.92 88.485805 
L 114.048 88.942262 
L 130.176 88.503682 
L 146.304 87.801073 
L 162.432 86.690766 
L 178.56 85.512259 
L 194.688 82.850177 
L 210.816 82.649042 
L 226.944 80.28872 
L 243.072 76.308832 
L 259.2 71.840064 
" style="fill:none;stroke:#9467bd;stroke-linecap:square;stroke-width:0.85;"/>
    <defs>
     <path d="M 0 2.5 
C 0.663008 2.5 1.29895 2.236584 1.767767 1.767767 
C 2.236584 1.29895 2.5 0.663008 2.5 0 
C 2.5 -0.663008 2.236584 -1.29895 1.767767 -1.767767 
C 1.29895 -2.236584 0.663008 -2.5 0 -2.5 
C -0.663008 -2.5 -1.29895 -2.236584 -1.767767 -1.767767 
C -2.236584 -1.29895 -2.5 -0.663008 -2.5 0 
C -2.5 0.663008 -2.236584 1.29895 -1.767767 1.767767 
C -1.29895 2.236584 -0.663008 2.5 0 2.5 
z
" id="m4fae066264"/>
    </defs>
    <g clip-path="url(#pc9616f41a3)">
     <use style="fill:#9467bd;" x="57.76128" xlink:href="#m4fae066264" y="85.148148"/>
     <use style="fill:#9467bd;" x="61.632" xlink:href="#m4fae066264" y="85.249989"/>
     <use style="fill:#9467bd;" x="65.664" xlink:href="#m4fae066264" y="85.468798"/>
     <use style="fill:#9467bd;" x="73.728" xlink:href="#m4fae066264" y="86.199779"/>
     <use style="fill:#9467bd;" x="81.792" xlink:href="#m4fae066264" y="87.118508"/>
     <use style="fill:#9467bd;" x="89.856" xlink:href="#m4fae066264" y="87.927466"/>
     <use style="fill:#9467bd;" x="97.92" xlink:href="#m4fae066264" y="88.485805"/>
     <use style="fill:#9467bd;" x="114.048" xlink:href="#m4fae066264" y="88.942262"/>
     <use style="fill:#9467bd;" x="130.176" xlink:href="#m4fae066264" y="88.503682"/>
     <use style="fill:#9467bd;" x="146.304" xlink:href="#m4fae066264" y="87.801073"/>
     <use style="fill:#9467bd;" x="162.432" xlink:href="#m4fae066264" y="86.690766"/>
     <use style="fill:#9467bd;" x="178.56" xlink:href="#m4fae066264" y="85.512259"/>
     <use style="fill:#9467bd;" x="194.688" xlink:href="#m4fae066264" y="82.850177"/>
     <use style="fill:#9467bd;" x="210.816" xlink:href="#m4fae066264" y="82.649042"/>
     <use style="fill:#9467bd;" x="226.944" xlink:href="#m4fae066264" y="80.28872"/>
     <use style="fill:#9467bd;" x="243.072" xlink:href="#m4fae066264" y="76.308832"/>
     <use style="fill:#9467bd;" x="259.2" xlink:href="#m4fae066264" y="71.840064"/>
    </g>
   </g>
   <g id="line2d_56">
    <path clip-path="url(#pc9616f41a3)" d="M 57.76128 54.483063 
L 61.632 54.546918 
L 65.664 54.66583 
L 73.728 55.006816 
L 81.792 55.366619 
L 89.856 55.644239 
L 97.92 55.810496 
L 114.048 55.868686 
L 130.176 55.649984 
L 146.304 55.482338 
L 162.432 55.251492 
L 178.56 55.027432 
L 194.688 54.256343 
L 210.816 53.769653 
L 226.944 52.863748 
L 243.072 51.364489 
L 259.2 49.302364 
" style="fill:none;stroke:#8c564b;stroke-linecap:square;stroke-width:0.85;"/>
    <defs>
     <path d="M 0 2.5 
C 0.663008 2.5 1.29895 2.236584 1.767767 1.767767 
C 2.236584 1.29895 2.5 0.663008 2.5 0 
C 2.5 -0.663008 2.236584 -1.29895 1.767767 -1.767767 
C 1.29895 -2.236584 0.663008 -2.5 0 -2.5 
C -0.663008 -2.5 -1.29895 -2.236584 -1.767767 -1.767767 
C -2.236584 -1.29895 -2.5 -0.663008 -2.5 0 
C -2.5 0.663008 -2.236584 1.29895 -1.767767 1.767767 
C -1.29895 2.236584 -0.663008 2.5 0 2.5 
z
" id="m507b742219"/>
    </defs>
    <g clip-path="url(#pc9616f41a3)">
     <use style="fill:#8c564b;" x="57.76128" xlink:href="#m507b742219" y="54.483063"/>
     <use style="fill:#8c564b;" x="61.632" xlink:href="#m507b742219" y="54.546918"/>
     <use style="fill:#8c564b;" x="65.664" xlink:href="#m507b742219" y="54.66583"/>
     <use style="fill:#8c564b;" x="73.728" xlink:href="#m507b742219" y="55.006816"/>
     <use style="fill:#8c564b;" x="81.792" xlink:href="#m507b742219" y="55.366619"/>
     <use style="fill:#8c564b;" x="89.856" xlink:href="#m507b742219" y="55.644239"/>
     <use style="fill:#8c564b;" x="97.92" xlink:href="#m507b742219" y="55.810496"/>
     <use style="fill:#8c564b;" x="114.048" xlink:href="#m507b742219" y="55.868686"/>
     <use style="fill:#8c564b;" x="130.176" xlink:href="#m507b742219" y="55.649984"/>
     <use style="fill:#8c564b;" x="146.304" xlink:href="#m507b742219" y="55.482338"/>
     <use style="fill:#8c564b;" x="162.432" xlink:href="#m507b742219" y="55.251492"/>
     <use style="fill:#8c564b;" x="178.56" xlink:href="#m507b742219" y="55.027432"/>
     <use style="fill:#8c564b;" x="194.688" xlink:href="#m507b742219" y="54.256343"/>
     <use style="fill:#8c564b;" x="210.816" xlink:href="#m507b742219" y="53.769653"/>
     <use style="fill:#8c564b;" x="226.944" xlink:href="#m507b742219" y="52.863748"/>
     <use style="fill:#8c564b;" x="243.072" xlink:href="#m507b742219" y="51.364489"/>
     <use style="fill:#8c564b;" x="259.2" xlink:href="#m507b742219" y="49.302364"/>
    </g>
   </g>
   <g id="line2d_57">
    <path clip-path="url(#pc9616f41a3)" d="M 57.76128 41.27627 
L 61.632 41.33695 
L 65.664 41.455597 
L 73.728 41.792163 
L 81.792 42.127785 
L 89.856 42.36857 
L 97.92 42.50108 
L 114.048 42.519107 
L 130.176 42.356887 
L 146.304 42.225256 
L 162.432 41.958626 
L 178.56 41.664341 
L 194.688 41.244426 
L 210.816 40.943607 
L 226.944 40.292356 
L 243.072 39.334125 
L 259.2 37.839841 
" style="fill:none;stroke:#e377c2;stroke-linecap:square;stroke-width:0.85;"/>
    <defs>
     <path d="M 0 2.5 
C 0.663008 2.5 1.29895 2.236584 1.767767 1.767767 
C 2.236584 1.29895 2.5 0.663008 2.5 0 
C 2.5 -0.663008 2.236584 -1.29895 1.767767 -1.767767 
C 1.29895 -2.236584 0.663008 -2.5 0 -2.5 
C -0.663008 -2.5 -1.29895 -2.236584 -1.767767 -1.767767 
C -2.236584 -1.29895 -2.5 -0.663008 -2.5 0 
C -2.5 0.663008 -2.236584 1.29895 -1.767767 1.767767 
C -1.29895 2.236584 -0.663008 2.5 0 2.5 
z
" id="m5bbd803b54"/>
    </defs>
    <g clip-path="url(#pc9616f41a3)">
     <use style="fill:#e377c2;" x="57.76128" xlink:href="#m5bbd803b54" y="41.27627"/>
     <use style="fill:#e377c2;" x="61.632" xlink:href="#m5bbd803b54" y="41.33695"/>
     <use style="fill:#e377c2;" x="65.664" xlink:href="#m5bbd803b54" y="41.455597"/>
     <use style="fill:#e377c2;" x="73.728" xlink:href="#m5bbd803b54" y="41.792163"/>
     <use style="fill:#e377c2;" x="81.792" xlink:href="#m5bbd803b54" y="42.127785"/>
     <use style="fill:#e377c2;" x="89.856" xlink:href="#m5bbd803b54" y="42.36857"/>
     <use style="fill:#e377c2;" x="97.92" xlink:href="#m5bbd803b54" y="42.50108"/>
     <use style="fill:#e377c2;" x="114.048" xlink:href="#m5bbd803b54" y="42.519107"/>
     <use style="fill:#e377c2;" x="130.176" xlink:href="#m5bbd803b54" y="42.356887"/>
     <use style="fill:#e377c2;" x="146.304" xlink:href="#m5bbd803b54" y="42.225256"/>
     <use style="fill:#e377c2;" x="162.432" xlink:href="#m5bbd803b54" y="41.958626"/>
     <use style="fill:#e377c2;" x="178.56" xlink:href="#m5bbd803b54" y="41.664341"/>
     <use style="fill:#e377c2;" x="194.688" xlink:href="#m5bbd803b54" y="41.244426"/>
     <use style="fill:#e377c2;" x="210.816" xlink:href="#m5bbd803b54" y="40.943607"/>
     <use style="fill:#e377c2;" x="226.944" xlink:href="#m5bbd803b54" y="40.292356"/>
     <use style="fill:#e377c2;" x="243.072" xlink:href="#m5bbd803b54" y="39.334125"/>
     <use style="fill:#e377c2;" x="259.2" xlink:href="#m5bbd803b54" y="37.839841"/>
    </g>
   </g>
   <g id="patch_3">
    <path d="M 57.6 230.4 
L 57.6 28.8 
" style="fill:none;stroke:#000000;stroke-linecap:square;stroke-linejoin:miter;stroke-width:0.85;"/>
   </g>
   <g id="patch_4">
    <path d="M 259.2 230.4 
L 259.2 28.8 
" style="fill:none;stroke:#000000;stroke-linecap:square;stroke-linejoin:miter;stroke-width:0.85;"/>
   </g>
   <g id="patch_5">
    <path d="M 57.6 230.4 
L 259.2 230.4 
" style="fill:none;stroke:#000000;stroke-linecap:square;stroke-linejoin:miter;stroke-width:0.85;"/>
   </g>
   <g id="patch_6">
    <path d="M 57.6 28.8 
L 259.2 28.8 
" style="fill:none;stroke:#000000;stroke-linecap:square;stroke-linejoin:miter;stroke-width:0.85;"/>
   </g>
   <g id="legend_1">
    <g id="line2d_58">
     <path d="M 189.62 147.59875 
L 203.62 147.59875 
" style="fill:none;stroke:#1f77b4;stroke-linecap:square;stroke-width:0.85;"/>
    </g>
    <g id="line2d_59">
     <g>
      <use style="fill:#1f77b4;" x="196.62" xlink:href="#m73c69a57a9" y="147.59875"/>
     </g>
    </g>
    <g id="text_15">
     <!-- 0.0001 mol/L$^3$ -->
     <defs>
      <path d="M 7.328125 0 
L 7.328125 71.578125 
L 16.796875 71.578125 
L 16.796875 8.453125 
L 52.046875 8.453125 
L 52.046875 0 
z
" id="ArialMT-4c"/>
     </defs>
     <g transform="translate(209.22 150.04875)scale(0.07 -0.07)">
      <use transform="translate(0 0.99375)" xlink:href="#ArialMT-30"/>
      <use transform="translate(55.615234 0.99375)" xlink:href="#ArialMT-2e"/>
      <use transform="translate(83.398438 0.99375)" xlink:href="#ArialMT-30"/>
      <use transform="translate(139.013672 0.99375)" xlink:href="#ArialMT-30"/>
      <use transform="translate(194.628906 0.99375)" xlink:href="#ArialMT-30"/>
      <use transform="translate(250.244141 0.99375)" xlink:href="#ArialMT-31"/>
      <use transform="translate(305.859375 0.99375)" xlink:href="#ArialMT-20"/>
      <use transform="translate(333.642578 0.99375)" xlink:href="#ArialMT-6d"/>
      <use transform="translate(416.943359 0.99375)" xlink:href="#ArialMT-6f"/>
      <use transform="translate(472.558594 0.99375)" xlink:href="#ArialMT-6c"/>
      <use transform="translate(494.775391 0.99375)" xlink:href="#ArialMT-2f"/>
      <use transform="translate(522.558594 0.99375)" xlink:href="#ArialMT-4c"/>
      <use transform="translate(579.916172 70.6875)scale(0.7)" xlink:href="#ArialMT-33"/>
     </g>
    </g>
    <g id="line2d_60">
     <path d="M 189.62 159.70875 
L 203.62 159.70875 
" style="fill:none;stroke:#ff7f0e;stroke-linecap:square;stroke-width:0.85;"/>
    </g>
    <g id="line2d_61">
     <g>
      <use style="fill:#ff7f0e;" x="196.62" xlink:href="#m88bac9b334" y="159.70875"/>
     </g>
    </g>
    <g id="text_16">
     <!-- 0.0005 mol/L$^3$ -->
     <defs>
      <path d="M 4.15625 18.75 
L 13.375 19.53125 
Q 14.40625 12.796875 18.140625 9.390625 
Q 21.875 6 27.15625 6 
Q 33.5 6 37.890625 10.78125 
Q 42.28125 15.578125 42.28125 23.484375 
Q 42.28125 31 38.0625 35.34375 
Q 33.84375 39.703125 27 39.703125 
Q 22.75 39.703125 19.328125 37.765625 
Q 15.921875 35.84375 13.96875 32.765625 
L 5.71875 33.84375 
L 12.640625 70.609375 
L 48.25 70.609375 
L 48.25 62.203125 
L 19.671875 62.203125 
L 15.828125 42.96875 
Q 22.265625 47.46875 29.34375 47.46875 
Q 38.71875 47.46875 45.15625 40.96875 
Q 51.609375 34.46875 51.609375 24.265625 
Q 51.609375 14.546875 45.953125 7.46875 
Q 39.0625 -1.21875 27.15625 -1.21875 
Q 17.390625 -1.21875 11.203125 4.25 
Q 5.03125 9.71875 4.15625 18.75 
" id="ArialMT-35"/>
     </defs>
     <g transform="translate(209.22 162.15875)scale(0.07 -0.07)">
      <use transform="translate(0 0.99375)" xlink:href="#ArialMT-30"/>
      <use transform="translate(55.615234 0.99375)" xlink:href="#ArialMT-2e"/>
      <use transform="translate(83.398438 0.99375)" xlink:href="#ArialMT-30"/>
      <use transform="translate(139.013672 0.99375)" xlink:href="#ArialMT-30"/>
      <use transform="translate(194.628906 0.99375)" xlink:href="#ArialMT-30"/>
      <use transform="translate(250.244141 0.99375)" xlink:href="#ArialMT-35"/>
      <use transform="translate(305.859375 0.99375)" xlink:href="#ArialMT-20"/>
      <use transform="translate(333.642578 0.99375)" xlink:href="#ArialMT-6d"/>
      <use transform="translate(416.943359 0.99375)" xlink:href="#ArialMT-6f"/>
      <use transform="translate(472.558594 0.99375)" xlink:href="#ArialMT-6c"/>
      <use transform="translate(494.775391 0.99375)" xlink:href="#ArialMT-2f"/>
      <use transform="translate(522.558594 0.99375)" xlink:href="#ArialMT-4c"/>
      <use transform="translate(579.916172 70.6875)scale(0.7)" xlink:href="#ArialMT-33"/>
     </g>
    </g>
    <g id="line2d_62">
     <path d="M 189.62 171.81875 
L 203.62 171.81875 
" style="fill:none;stroke:#2ca02c;stroke-linecap:square;stroke-width:0.85;"/>
    </g>
    <g id="line2d_63">
     <g>
      <use style="fill:#2ca02c;" x="196.62" xlink:href="#m2a9c66490b" y="171.81875"/>
     </g>
    </g>
    <g id="text_17">
     <!-- 0.001 mol/L$^3$ -->
     <g transform="translate(209.22 174.26875)scale(0.07 -0.07)">
      <use transform="translate(0 0.99375)" xlink:href="#ArialMT-30"/>
      <use transform="translate(55.615234 0.99375)" xlink:href="#ArialMT-2e"/>
      <use transform="translate(83.398438 0.99375)" xlink:href="#ArialMT-30"/>
      <use transform="translate(139.013672 0.99375)" xlink:href="#ArialMT-30"/>
      <use transform="translate(194.628906 0.99375)" xlink:href="#ArialMT-31"/>
      <use transform="translate(250.244141 0.99375)" xlink:href="#ArialMT-20"/>
      <use transform="translate(278.027344 0.99375)" xlink:href="#ArialMT-6d"/>
      <use transform="translate(361.328125 0.99375)" xlink:href="#ArialMT-6f"/>
      <use transform="translate(416.943359 0.99375)" xlink:href="#ArialMT-6c"/>
      <use transform="translate(439.160156 0.99375)" xlink:href="#ArialMT-2f"/>
      <use transform="translate(466.943359 0.99375)" xlink:href="#ArialMT-4c"/>
      <use transform="translate(524.300938 70.6875)scale(0.7)" xlink:href="#ArialMT-33"/>
     </g>
    </g>
    <g id="line2d_64">
     <path d="M 189.62 183.92875 
L 203.62 183.92875 
" style="fill:none;stroke:#d62728;stroke-linecap:square;stroke-width:0.85;"/>
    </g>
    <g id="line2d_65">
     <g>
      <use style="fill:#d62728;" x="196.62" xlink:href="#m1390bc64b6" y="183.92875"/>
     </g>
    </g>
    <g id="text_18">
     <!-- 0.005 mol/L$^3$ -->
     <g transform="translate(209.22 186.37875)scale(0.07 -0.07)">
      <use transform="translate(0 0.99375)" xlink:href="#ArialMT-30"/>
      <use transform="translate(55.615234 0.99375)" xlink:href="#ArialMT-2e"/>
      <use transform="translate(83.398438 0.99375)" xlink:href="#ArialMT-30"/>
      <use transform="translate(139.013672 0.99375)" xlink:href="#ArialMT-30"/>
      <use transform="translate(194.628906 0.99375)" xlink:href="#ArialMT-35"/>
      <use transform="translate(250.244141 0.99375)" xlink:href="#ArialMT-20"/>
      <use transform="translate(278.027344 0.99375)" xlink:href="#ArialMT-6d"/>
      <use transform="translate(361.328125 0.99375)" xlink:href="#ArialMT-6f"/>
      <use transform="translate(416.943359 0.99375)" xlink:href="#ArialMT-6c"/>
      <use transform="translate(439.160156 0.99375)" xlink:href="#ArialMT-2f"/>
      <use transform="translate(466.943359 0.99375)" xlink:href="#ArialMT-4c"/>
      <use transform="translate(524.300938 70.6875)scale(0.7)" xlink:href="#ArialMT-33"/>
     </g>
    </g>
    <g id="line2d_66">
     <path d="M 189.62 196.03875 
L 203.62 196.03875 
" style="fill:none;stroke:#9467bd;stroke-linecap:square;stroke-width:0.85;"/>
    </g>
    <g id="line2d_67">
     <g>
      <use style="fill:#9467bd;" x="196.62" xlink:href="#m4fae066264" y="196.03875"/>
     </g>
    </g>
    <g id="text_19">
     <!-- 0.01 mol/L$^3$ -->
     <g transform="translate(209.22 198.48875)scale(0.07 -0.07)">
      <use transform="translate(0 0.99375)" xlink:href="#ArialMT-30"/>
      <use transform="translate(55.615234 0.99375)" xlink:href="#ArialMT-2e"/>
      <use transform="translate(83.398438 0.99375)" xlink:href="#ArialMT-30"/>
      <use transform="translate(139.013672 0.99375)" xlink:href="#ArialMT-31"/>
      <use transform="translate(194.628906 0.99375)" xlink:href="#ArialMT-20"/>
      <use transform="translate(222.412109 0.99375)" xlink:href="#ArialMT-6d"/>
      <use transform="translate(305.712891 0.99375)" xlink:href="#ArialMT-6f"/>
      <use transform="translate(361.328125 0.99375)" xlink:href="#ArialMT-6c"/>
      <use transform="translate(383.544922 0.99375)" xlink:href="#ArialMT-2f"/>
      <use transform="translate(411.328125 0.99375)" xlink:href="#ArialMT-4c"/>
      <use transform="translate(468.685703 70.6875)scale(0.7)" xlink:href="#ArialMT-33"/>
     </g>
    </g>
    <g id="line2d_68">
     <path d="M 189.62 208.14875 
L 203.62 208.14875 
" style="fill:none;stroke:#8c564b;stroke-linecap:square;stroke-width:0.85;"/>
    </g>
    <g id="line2d_69">
     <g>
      <use style="fill:#8c564b;" x="196.62" xlink:href="#m507b742219" y="208.14875"/>
     </g>
    </g>
    <g id="text_20">
     <!-- 0.05 mol/L$^3$ -->
     <g transform="translate(209.22 210.59875)scale(0.07 -0.07)">
      <use transform="translate(0 0.99375)" xlink:href="#ArialMT-30"/>
      <use transform="translate(55.615234 0.99375)" xlink:href="#ArialMT-2e"/>
      <use transform="translate(83.398438 0.99375)" xlink:href="#ArialMT-30"/>
      <use transform="translate(139.013672 0.99375)" xlink:href="#ArialMT-35"/>
      <use transform="translate(194.628906 0.99375)" xlink:href="#ArialMT-20"/>
      <use transform="translate(222.412109 0.99375)" xlink:href="#ArialMT-6d"/>
      <use transform="translate(305.712891 0.99375)" xlink:href="#ArialMT-6f"/>
      <use transform="translate(361.328125 0.99375)" xlink:href="#ArialMT-6c"/>
      <use transform="translate(383.544922 0.99375)" xlink:href="#ArialMT-2f"/>
      <use transform="translate(411.328125 0.99375)" xlink:href="#ArialMT-4c"/>
      <use transform="translate(468.685703 70.6875)scale(0.7)" xlink:href="#ArialMT-33"/>
     </g>
    </g>
    <g id="line2d_70">
     <path d="M 189.62 220.25875 
L 203.62 220.25875 
" style="fill:none;stroke:#e377c2;stroke-linecap:square;stroke-width:0.85;"/>
    </g>
    <g id="line2d_71">
     <g>
      <use style="fill:#e377c2;" x="196.62" xlink:href="#m5bbd803b54" y="220.25875"/>
     </g>
    </g>
    <g id="text_21">
     <!-- 0.1 mol/L$^3$ -->
     <g transform="translate(209.22 222.70875)scale(0.07 -0.07)">
      <use transform="translate(0 0.99375)" xlink:href="#ArialMT-30"/>
      <use transform="translate(55.615234 0.99375)" xlink:href="#ArialMT-2e"/>
      <use transform="translate(83.398438 0.99375)" xlink:href="#ArialMT-31"/>
      <use transform="translate(139.013672 0.99375)" xlink:href="#ArialMT-20"/>
      <use transform="translate(166.796875 0.99375)" xlink:href="#ArialMT-6d"/>
      <use transform="translate(250.097656 0.99375)" xlink:href="#ArialMT-6f"/>
      <use transform="translate(305.712891 0.99375)" xlink:href="#ArialMT-6c"/>
      <use transform="translate(327.929688 0.99375)" xlink:href="#ArialMT-2f"/>
      <use transform="translate(355.712891 0.99375)" xlink:href="#ArialMT-4c"/>
      <use transform="translate(413.070469 70.6875)scale(0.7)" xlink:href="#ArialMT-33"/>
     </g>
    </g>
   </g>
  </g>
 </g>
 <defs>
  <clipPath id="pc9616f41a3">
   <rect height="201.6" width="201.6" x="57.6" y="28.8"/>
  </clipPath>
 </defs>
</svg>
