<?xml version="1.0" encoding="utf-8" standalone="no"?>
<!DOCTYPE svg PUBLIC "-//W3C//DTD SVG 1.1//EN"
  "http://www.w3.org/Graphics/SVG/1.1/DTD/svg11.dtd">
<!-- Created with matplotlib (http://matplotlib.org/) -->
<svg height="171.841797pt" version="1.1" viewBox="0 0 179.439062 171.841797" width="179.439062pt" xmlns="http://www.w3.org/2000/svg" xmlns:xlink="http://www.w3.org/1999/xlink">
 <defs>
  <style type="text/css">
*{stroke-linecap:butt;stroke-linejoin:round;}
  </style>
 </defs>
 <g id="figure_1">
  <g id="patch_1">
   <path d="M 0 171.841797 
L 179.439062 171.841797 
L 179.439062 0 
L 0 0 
z
" style="fill:none;"/>
  </g>
  <g id="axes_1">
   <g id="patch_2">
    <path d="M 42.739063 136.7 
L 168.739062 136.7 
L 168.739062 10.7 
L 42.739063 10.7 
z
" style="fill:none;"/>
   </g>
   <g id="patch_3">
    <path clip-path="url(#pea0c90d6b2)" d="M 42.739063 136.7 
L 53.239063 136.7 
L 53.239063 114.594737 
L 42.739063 114.594737 
z
" style="fill:#1f77b4;"/>
   </g>
   <g id="patch_4">
    <path clip-path="url(#pea0c90d6b2)" d="M 53.239062 136.7 
L 63.739062 136.7 
L 63.739062 56.568421 
L 53.239062 56.568421 
z
" style="fill:#1f77b4;"/>
   </g>
   <g id="patch_5">
    <path clip-path="url(#pea0c90d6b2)" d="M 63.739062 136.7 
L 74.239062 136.7 
L 74.239062 37.226316 
L 63.739062 37.226316 
z
" style="fill:#1f77b4;"/>
   </g>
   <g id="patch_6">
    <path clip-path="url(#pea0c90d6b2)" d="M 74.239062 136.7 
L 84.739062 136.7 
L 84.739062 20.647368 
L 74.239062 20.647368 
z
" style="fill:#1f77b4;"/>
   </g>
   <g id="patch_7">
    <path clip-path="url(#pea0c90d6b2)" d="M 84.739062 136.7 
L 95.239062 136.7 
L 95.239062 31.7 
L 84.739062 31.7 
z
" style="fill:#1f77b4;"/>
   </g>
   <g id="patch_8">
    <path clip-path="url(#pea0c90d6b2)" d="M 95.239062 136.7 
L 105.739062 136.7 
L 105.739062 39.989474 
L 95.239062 39.989474 
z
" style="fill:#1f77b4;"/>
   </g>
   <g id="patch_9">
    <path clip-path="url(#pea0c90d6b2)" d="M 105.739062 136.7 
L 116.239062 136.7 
L 116.239062 75.910526 
L 105.739062 75.910526 
z
" style="fill:#1f77b4;"/>
   </g>
   <g id="patch_10">
    <path clip-path="url(#pea0c90d6b2)" d="M 116.239062 136.7 
L 126.739062 136.7 
L 126.739062 109.068421 
L 116.239062 109.068421 
z
" style="fill:#1f77b4;"/>
   </g>
   <g id="patch_11">
    <path clip-path="url(#pea0c90d6b2)" d="M 126.739062 136.7 
L 137.239062 136.7 
L 137.239062 122.884211 
L 126.739062 122.884211 
z
" style="fill:#1f77b4;"/>
   </g>
   <g id="patch_12">
    <path clip-path="url(#pea0c90d6b2)" d="M 137.239062 136.7 
L 147.739062 136.7 
L 147.739062 133.936842 
L 137.239062 133.936842 
z
" style="fill:#1f77b4;"/>
   </g>
   <g id="patch_13">
    <path clip-path="url(#pea0c90d6b2)" d="M 147.739062 136.7 
L 158.239062 136.7 
L 158.239062 133.936842 
L 147.739062 133.936842 
z
" style="fill:#1f77b4;"/>
   </g>
   <g id="patch_14">
    <path clip-path="url(#pea0c90d6b2)" d="M 158.239062 136.7 
L 168.739062 136.7 
L 168.739062 133.936842 
L 158.239062 133.936842 
z
" style="fill:#1f77b4;"/>
   </g>
   <g id="matplotlib.axis_1">
    <g id="xtick_1">
     <g id="line2d_1">
      <defs>
       <path d="M 0 0 
L 0 3.5 
" id="m6ff72a92a0" style="stroke:#000000;stroke-width:0.85;"/>
      </defs>
      <g>
       <use style="stroke:#000000;stroke-width:0.85;" x="74.239062" xlink:href="#m6ff72a92a0" y="136.7"/>
      </g>
     </g>
     <g id="text_1">
      <text style="font-family:Helvetica;font-size:7.5px;font-style:normal;font-weight:500;text-anchor:middle;" transform="rotate(-0, 74.239062, 149.080078)" x="74.239062" y="149.080078">20</text>
     </g>
    </g>
    <g id="xtick_2">
     <g id="line2d_2">
      <g>
       <use style="stroke:#000000;stroke-width:0.85;" x="116.239062" xlink:href="#m6ff72a92a0" y="136.7"/>
      </g>
     </g>
     <g id="text_2">
      <text style="font-family:Helvetica;font-size:7.5px;font-style:normal;font-weight:500;text-anchor:middle;" transform="rotate(-0, 116.239062, 149.080078)" x="116.239062" y="149.080078">40</text>
     </g>
    </g>
    <g id="xtick_3">
     <g id="line2d_3">
      <g>
       <use style="stroke:#000000;stroke-width:0.85;" x="158.239062" xlink:href="#m6ff72a92a0" y="136.7"/>
      </g>
     </g>
     <g id="text_3">
      <text style="font-family:Helvetica;font-size:7.5px;font-style:normal;font-weight:500;text-anchor:middle;" transform="rotate(-0, 158.239062, 149.080078)" x="158.239062" y="149.080078">60</text>
     </g>
    </g>
    <g id="text_4">
     <text style="font-family:Helvetica;font-size:7.5px;font-style:normal;font-weight:500;text-anchor:middle;" transform="rotate(-0, 105.739062, 163.078516)" x="105.739062" y="163.078516">Pore Radius (nm)</text>
    </g>
   </g>
   <g id="matplotlib.axis_2">
    <g id="ytick_1">
     <g id="line2d_4">
      <defs>
       <path d="M 0 0 
L -3.5 0 
" id="m6e6871f681" style="stroke:#000000;stroke-width:0.85;"/>
      </defs>
      <g>
       <use style="stroke:#000000;stroke-width:0.85;" x="42.739063" xlink:href="#m6e6871f681" y="136.7"/>
      </g>
     </g>
     <g id="text_5">
      <text style="font-family:Helvetica;font-size:7.5px;font-style:normal;font-weight:500;text-anchor:end;" transform="rotate(-0, 35.739063, 139.390039)" x="35.739063" y="139.390039">0.00</text>
     </g>
    </g>
    <g id="ytick_2">
     <g id="line2d_5">
      <g>
       <use style="stroke:#000000;stroke-width:0.85;" x="42.739063" xlink:href="#m6e6871f681" y="73.7"/>
      </g>
     </g>
     <g id="text_6">
      <text style="font-family:Helvetica;font-size:7.5px;font-style:normal;font-weight:500;text-anchor:end;" transform="rotate(-0, 35.739063, 76.390039)" x="35.739063" y="76.390039">0.02</text>
     </g>
    </g>
    <g id="ytick_3">
     <g id="line2d_6">
      <g>
       <use style="stroke:#000000;stroke-width:0.85;" x="42.739063" xlink:href="#m6e6871f681" y="10.7"/>
      </g>
     </g>
     <g id="text_7">
      <text style="font-family:Helvetica;font-size:7.5px;font-style:normal;font-weight:500;text-anchor:end;" transform="rotate(-0, 35.739063, 13.390039)" x="35.739063" y="13.390039">0.04</text>
     </g>
    </g>
    <g id="text_8">
     <text style="font-family:Helvetica;font-size:7.5px;font-style:normal;font-weight:500;text-anchor:middle;" transform="rotate(-90, 12.580078, 73.7)" x="12.580078" y="73.7">Frequencies</text>
    </g>
   </g>
   <g id="patch_15">
    <path d="M 42.739063 136.7 
L 42.739063 10.7 
" style="fill:none;stroke:#000000;stroke-linecap:square;stroke-linejoin:miter;stroke-width:0.85;"/>
   </g>
   <g id="patch_16">
    <path d="M 168.739062 136.7 
L 168.739062 10.7 
" style="fill:none;stroke:#000000;stroke-linecap:square;stroke-linejoin:miter;stroke-width:0.85;"/>
   </g>
   <g id="patch_17">
    <path d="M 42.739063 136.7 
L 168.739062 136.7 
" style="fill:none;stroke:#000000;stroke-linecap:square;stroke-linejoin:miter;stroke-width:0.85;"/>
   </g>
   <g id="patch_18">
    <path d="M 42.739063 10.7 
L 168.739062 10.7 
" style="fill:none;stroke:#000000;stroke-linecap:square;stroke-linejoin:miter;stroke-width:0.85;"/>
   </g>
  </g>
 </g>
 <defs>
  <clipPath id="pea0c90d6b2">
   <rect height="126" width="126" x="42.739063" y="10.7"/>
  </clipPath>
 </defs>
</svg>
