<?xml version="1.0" encoding="utf-8" standalone="no"?>
<!DOCTYPE svg PUBLIC "-//W3C//DTD SVG 1.1//EN"
  "http://www.w3.org/Graphics/SVG/1.1/DTD/svg11.dtd">
<!-- Created with matplotlib (http://matplotlib.org/) -->
<svg height="151pt" version="1.1" viewBox="0 0 201 151" width="201pt" xmlns="http://www.w3.org/2000/svg" xmlns:xlink="http://www.w3.org/1999/xlink">
 <defs>
  <style type="text/css">
*{stroke-linecap:butt;stroke-linejoin:round;}
  </style>
 </defs>
 <g id="figure_1">
  <g id="patch_1">
   <path d="M 0 151.2 
L 201.6 151.2 
L 201.6 0 
L 0 0 
z
" style="fill:none;"/>
  </g>
  <g id="axes_1">
   <g id="patch_2">
    <path d="M 51.414688 113.899844 
L 154.962344 113.899844 
L 154.962344 10.71 
L 51.414688 10.71 
z
" style="fill:none;"/>
   </g>
   <g id="matplotlib.axis_1">
    <g id="xtick_1">
     <g id="line2d_1">
      <defs>
       <path d="M 0 0 
L 0 3.5 
" id="m3c9933a9bc" style="stroke:#000000;stroke-width:0.85;"/>
      </defs>
      <g>
       <use style="stroke:#000000;stroke-width:0.85;" x="51.414688" xlink:href="#m3c9933a9bc" y="113.899844"/>
      </g>
     </g>
     <g id="text_1">
      <!-- 0.0 -->
      <defs>
       <path d="M 4.15625 35.296875 
Q 4.15625 48 6.765625 55.734375 
Q 9.375 63.484375 14.515625 67.671875 
Q 19.671875 71.875 27.484375 71.875 
Q 33.25 71.875 37.59375 69.546875 
Q 41.9375 67.234375 44.765625 62.859375 
Q 47.609375 58.5 49.21875 52.21875 
Q 50.828125 45.953125 50.828125 35.296875 
Q 50.828125 22.703125 48.234375 14.96875 
Q 45.65625 7.234375 40.5 3 
Q 35.359375 -1.21875 27.484375 -1.21875 
Q 17.140625 -1.21875 11.234375 6.203125 
Q 4.15625 15.140625 4.15625 35.296875 
M 13.1875 35.296875 
Q 13.1875 17.671875 17.3125 11.828125 
Q 21.4375 6 27.484375 6 
Q 33.546875 6 37.671875 11.859375 
Q 41.796875 17.71875 41.796875 35.296875 
Q 41.796875 52.984375 37.671875 58.78125 
Q 33.546875 64.59375 27.390625 64.59375 
Q 21.34375 64.59375 17.71875 59.46875 
Q 13.1875 52.9375 13.1875 35.296875 
" id="ArialMT-30"/>
       <path d="M 9.078125 0 
L 9.078125 10.015625 
L 19.09375 10.015625 
L 19.09375 0 
z
" id="ArialMT-2e"/>
      </defs>
      <g transform="translate(46.202188 126.268203)scale(0.075 -0.075)">
       <use xlink:href="#ArialMT-30"/>
       <use x="55.615234" xlink:href="#ArialMT-2e"/>
       <use x="83.398438" xlink:href="#ArialMT-30"/>
      </g>
     </g>
    </g>
    <g id="xtick_2">
     <g id="line2d_2">
      <g>
       <use style="stroke:#000000;stroke-width:0.85;" x="92.83375" xlink:href="#m3c9933a9bc" y="113.899844"/>
      </g>
     </g>
     <g id="text_2">
      <!-- 0.5 -->
      <defs>
       <path d="M 4.15625 18.75 
L 13.375 19.53125 
Q 14.40625 12.796875 18.140625 9.390625 
Q 21.875 6 27.15625 6 
Q 33.5 6 37.890625 10.78125 
Q 42.28125 15.578125 42.28125 23.484375 
Q 42.28125 31 38.0625 35.34375 
Q 33.84375 39.703125 27 39.703125 
Q 22.75 39.703125 19.328125 37.765625 
Q 15.921875 35.84375 13.96875 32.765625 
L 5.71875 33.84375 
L 12.640625 70.609375 
L 48.25 70.609375 
L 48.25 62.203125 
L 19.671875 62.203125 
L 15.828125 42.96875 
Q 22.265625 47.46875 29.34375 47.46875 
Q 38.71875 47.46875 45.15625 40.96875 
Q 51.609375 34.46875 51.609375 24.265625 
Q 51.609375 14.546875 45.953125 7.46875 
Q 39.0625 -1.21875 27.15625 -1.21875 
Q 17.390625 -1.21875 11.203125 4.25 
Q 5.03125 9.71875 4.15625 18.75 
" id="ArialMT-35"/>
      </defs>
      <g transform="translate(87.62125 126.268203)scale(0.075 -0.075)">
       <use xlink:href="#ArialMT-30"/>
       <use x="55.615234" xlink:href="#ArialMT-2e"/>
       <use x="83.398438" xlink:href="#ArialMT-35"/>
      </g>
     </g>
    </g>
    <g id="xtick_3">
     <g id="line2d_3">
      <g>
       <use style="stroke:#000000;stroke-width:0.85;" x="134.252813" xlink:href="#m3c9933a9bc" y="113.899844"/>
      </g>
     </g>
     <g id="text_3">
      <!-- 1.0 -->
      <defs>
       <path d="M 37.25 0 
L 28.46875 0 
L 28.46875 56 
Q 25.296875 52.984375 20.140625 49.953125 
Q 14.984375 46.921875 10.890625 45.40625 
L 10.890625 53.90625 
Q 18.265625 57.375 23.78125 62.296875 
Q 29.296875 67.234375 31.59375 71.875 
L 37.25 71.875 
z
" id="ArialMT-31"/>
      </defs>
      <g transform="translate(129.040313 126.268203)scale(0.075 -0.075)">
       <use xlink:href="#ArialMT-31"/>
       <use x="55.615234" xlink:href="#ArialMT-2e"/>
       <use x="83.398438" xlink:href="#ArialMT-30"/>
      </g>
     </g>
    </g>
    <g id="text_4">
     <!-- $V_{\mathrm{G}}$ (V) -->
     <defs>
      <path d="M 26.171875 0 
L 12.40625 71.578125 
L 21.625 71.578125 
L 29.9375 28.90625 
Q 32.234375 17.28125 32.90625 10.15625 
Q 37.40625 19.34375 40.28125 24.703125 
L 65.828125 71.578125 
L 75.6875 71.578125 
L 36.421875 0 
z
" id="Arial-ItalicMT-56"/>
      <path d="M 41.21875 28.078125 
L 41.21875 36.46875 
L 71.53125 36.53125 
L 71.53125 9.96875 
Q 64.546875 4.390625 57.125 1.578125 
Q 49.703125 -1.21875 41.890625 -1.21875 
Q 31.34375 -1.21875 22.71875 3.296875 
Q 14.109375 7.8125 9.71875 16.359375 
Q 5.328125 24.90625 5.328125 35.453125 
Q 5.328125 45.90625 9.6875 54.953125 
Q 14.0625 64.015625 22.265625 68.40625 
Q 30.46875 72.796875 41.15625 72.796875 
Q 48.921875 72.796875 55.1875 70.28125 
Q 61.46875 67.78125 65.03125 63.28125 
Q 68.609375 58.796875 70.453125 51.5625 
L 61.921875 49.21875 
Q 60.296875 54.6875 57.90625 57.8125 
Q 55.515625 60.9375 51.0625 62.8125 
Q 46.625 64.703125 41.21875 64.703125 
Q 34.71875 64.703125 29.984375 62.71875 
Q 25.25 60.75 22.34375 57.515625 
Q 19.4375 54.296875 17.828125 50.4375 
Q 15.09375 43.796875 15.09375 36.03125 
Q 15.09375 26.46875 18.390625 20.015625 
Q 21.6875 13.578125 27.984375 10.453125 
Q 34.28125 7.328125 41.359375 7.328125 
Q 47.515625 7.328125 53.375 9.6875 
Q 59.234375 12.0625 62.25 14.75 
L 62.25 28.078125 
z
" id="ArialMT-47"/>
      <path id="ArialMT-20"/>
      <path d="M 23.390625 -21.046875 
Q 16.109375 -11.859375 11.078125 0.4375 
Q 6.0625 12.75 6.0625 25.921875 
Q 6.0625 37.546875 9.8125 48.1875 
Q 14.203125 60.546875 23.390625 72.796875 
L 29.6875 72.796875 
Q 23.78125 62.640625 21.875 58.296875 
Q 18.890625 51.5625 17.1875 44.234375 
Q 15.09375 35.109375 15.09375 25.875 
Q 15.09375 2.390625 29.6875 -21.046875 
z
" id="ArialMT-28"/>
      <path d="M 28.171875 0 
L 0.4375 71.578125 
L 10.6875 71.578125 
L 29.296875 19.578125 
Q 31.546875 13.328125 33.0625 7.859375 
Q 34.71875 13.71875 36.921875 19.578125 
L 56.25 71.578125 
L 65.921875 71.578125 
L 37.890625 0 
z
" id="ArialMT-56"/>
      <path d="M 12.359375 -21.046875 
L 6.0625 -21.046875 
Q 20.65625 2.390625 20.65625 25.875 
Q 20.65625 35.0625 18.5625 44.09375 
Q 16.890625 51.421875 13.921875 58.15625 
Q 12.015625 62.546875 6.0625 72.796875 
L 12.359375 72.796875 
Q 21.53125 60.546875 25.921875 48.1875 
Q 29.6875 37.546875 29.6875 25.921875 
Q 29.6875 12.75 24.625 0.4375 
Q 19.578125 -11.859375 12.359375 -21.046875 
" id="ArialMT-29"/>
     </defs>
     <g transform="translate(92.388516 140.233828)scale(0.075 -0.075)">
      <use transform="translate(0 0.203125)" xlink:href="#Arial-ItalicMT-56"/>
      <use transform="translate(66.699219 -29.665625)scale(0.7)" xlink:href="#ArialMT-47"/>
      <use transform="translate(126.125586 0.203125)" xlink:href="#ArialMT-20"/>
      <use transform="translate(153.908789 0.203125)" xlink:href="#ArialMT-28"/>
      <use transform="translate(187.20957 0.203125)" xlink:href="#ArialMT-56"/>
      <use transform="translate(253.908789 0.203125)" xlink:href="#ArialMT-29"/>
     </g>
    </g>
   </g>
   <g id="matplotlib.axis_2">
    <g id="ytick_1">
     <g id="line2d_4">
      <defs>
       <path d="M 0 0 
L -3.5 0 
" id="mac589f0f75" style="stroke:#000000;stroke-width:0.85;"/>
      </defs>
      <g>
       <use style="stroke:#000000;stroke-width:0.85;" x="51.414688" xlink:href="#mac589f0f75" y="113.899844"/>
      </g>
     </g>
     <g id="text_5">
      <!-- 0.00 -->
      <g transform="translate(29.818984 116.584023)scale(0.075 -0.075)">
       <use xlink:href="#ArialMT-30"/>
       <use x="55.615234" xlink:href="#ArialMT-2e"/>
       <use x="83.398438" xlink:href="#ArialMT-30"/>
       <use x="139.013672" xlink:href="#ArialMT-30"/>
      </g>
     </g>
    </g>
    <g id="ytick_2">
     <g id="line2d_5">
      <g>
       <use style="stroke:#000000;stroke-width:0.85;" x="51.414688" xlink:href="#mac589f0f75" y="93.261875"/>
      </g>
     </g>
     <g id="text_6">
      <!-- 0.02 -->
      <defs>
       <path d="M 50.34375 8.453125 
L 50.34375 0 
L 3.03125 0 
Q 2.9375 3.171875 4.046875 6.109375 
Q 5.859375 10.9375 9.828125 15.625 
Q 13.8125 20.3125 21.34375 26.46875 
Q 33.015625 36.03125 37.109375 41.625 
Q 41.21875 47.21875 41.21875 52.203125 
Q 41.21875 57.421875 37.46875 61 
Q 33.734375 64.59375 27.734375 64.59375 
Q 21.390625 64.59375 17.578125 60.78125 
Q 13.765625 56.984375 13.71875 50.25 
L 4.6875 51.171875 
Q 5.609375 61.28125 11.65625 66.578125 
Q 17.71875 71.875 27.9375 71.875 
Q 38.234375 71.875 44.234375 66.15625 
Q 50.25 60.453125 50.25 52 
Q 50.25 47.703125 48.484375 43.546875 
Q 46.734375 39.40625 42.65625 34.8125 
Q 38.578125 30.21875 29.109375 22.21875 
Q 21.1875 15.578125 18.9375 13.203125 
Q 16.703125 10.84375 15.234375 8.453125 
z
" id="ArialMT-32"/>
      </defs>
      <g transform="translate(29.818984 95.946055)scale(0.075 -0.075)">
       <use xlink:href="#ArialMT-30"/>
       <use x="55.615234" xlink:href="#ArialMT-2e"/>
       <use x="83.398438" xlink:href="#ArialMT-30"/>
       <use x="139.013672" xlink:href="#ArialMT-32"/>
      </g>
     </g>
    </g>
    <g id="ytick_3">
     <g id="line2d_6">
      <g>
       <use style="stroke:#000000;stroke-width:0.85;" x="51.414688" xlink:href="#mac589f0f75" y="72.623906"/>
      </g>
     </g>
     <g id="text_7">
      <!-- 0.04 -->
      <defs>
       <path d="M 32.328125 0 
L 32.328125 17.140625 
L 1.265625 17.140625 
L 1.265625 25.203125 
L 33.9375 71.578125 
L 41.109375 71.578125 
L 41.109375 25.203125 
L 50.78125 25.203125 
L 50.78125 17.140625 
L 41.109375 17.140625 
L 41.109375 0 
z
M 32.328125 25.203125 
L 32.328125 57.46875 
L 9.90625 25.203125 
z
" id="ArialMT-34"/>
      </defs>
      <g transform="translate(29.818984 75.308086)scale(0.075 -0.075)">
       <use xlink:href="#ArialMT-30"/>
       <use x="55.615234" xlink:href="#ArialMT-2e"/>
       <use x="83.398438" xlink:href="#ArialMT-30"/>
       <use x="139.013672" xlink:href="#ArialMT-34"/>
      </g>
     </g>
    </g>
    <g id="ytick_4">
     <g id="line2d_7">
      <g>
       <use style="stroke:#000000;stroke-width:0.85;" x="51.414688" xlink:href="#mac589f0f75" y="51.985938"/>
      </g>
     </g>
     <g id="text_8">
      <!-- 0.06 -->
      <defs>
       <path d="M 49.75 54.046875 
L 41.015625 53.375 
Q 39.84375 58.546875 37.703125 60.890625 
Q 34.125 64.65625 28.90625 64.65625 
Q 24.703125 64.65625 21.53125 62.3125 
Q 17.390625 59.28125 14.984375 53.46875 
Q 12.59375 47.65625 12.5 36.921875 
Q 15.671875 41.75 20.265625 44.09375 
Q 24.859375 46.4375 29.890625 46.4375 
Q 38.671875 46.4375 44.84375 39.96875 
Q 51.03125 33.5 51.03125 23.25 
Q 51.03125 16.5 48.125 10.71875 
Q 45.21875 4.9375 40.140625 1.859375 
Q 35.0625 -1.21875 28.609375 -1.21875 
Q 17.625 -1.21875 10.6875 6.859375 
Q 3.765625 14.9375 3.765625 33.5 
Q 3.765625 54.25 11.421875 63.671875 
Q 18.109375 71.875 29.4375 71.875 
Q 37.890625 71.875 43.28125 67.140625 
Q 48.6875 62.40625 49.75 54.046875 
M 13.875 23.1875 
Q 13.875 18.65625 15.796875 14.5 
Q 17.71875 10.359375 21.1875 8.171875 
Q 24.65625 6 28.46875 6 
Q 34.03125 6 38.03125 10.484375 
Q 42.046875 14.984375 42.046875 22.703125 
Q 42.046875 30.125 38.078125 34.390625 
Q 34.125 38.671875 28.125 38.671875 
Q 22.171875 38.671875 18.015625 34.390625 
Q 13.875 30.125 13.875 23.1875 
" id="ArialMT-36"/>
      </defs>
      <g transform="translate(29.818984 54.670117)scale(0.075 -0.075)">
       <use xlink:href="#ArialMT-30"/>
       <use x="55.615234" xlink:href="#ArialMT-2e"/>
       <use x="83.398438" xlink:href="#ArialMT-30"/>
       <use x="139.013672" xlink:href="#ArialMT-36"/>
      </g>
     </g>
    </g>
    <g id="ytick_5">
     <g id="line2d_8">
      <g>
       <use style="stroke:#000000;stroke-width:0.85;" x="51.414688" xlink:href="#mac589f0f75" y="31.347969"/>
      </g>
     </g>
     <g id="text_9">
      <!-- 0.08 -->
      <defs>
       <path d="M 17.671875 38.8125 
Q 12.203125 40.828125 9.5625 44.53125 
Q 6.9375 48.25 6.9375 53.421875 
Q 6.9375 61.234375 12.546875 66.546875 
Q 18.171875 71.875 27.484375 71.875 
Q 36.859375 71.875 42.578125 66.421875 
Q 48.296875 60.984375 48.296875 53.171875 
Q 48.296875 48.1875 45.671875 44.5 
Q 43.0625 40.828125 37.75 38.8125 
Q 44.34375 36.671875 47.78125 31.875 
Q 51.21875 27.09375 51.21875 20.453125 
Q 51.21875 11.28125 44.71875 5.03125 
Q 38.234375 -1.21875 27.640625 -1.21875 
Q 17.046875 -1.21875 10.546875 5.046875 
Q 4.046875 11.328125 4.046875 20.703125 
Q 4.046875 27.6875 7.59375 32.390625 
Q 11.140625 37.109375 17.671875 38.8125 
M 15.921875 53.71875 
Q 15.921875 48.640625 19.1875 45.40625 
Q 22.46875 42.1875 27.6875 42.1875 
Q 32.765625 42.1875 36.015625 45.375 
Q 39.265625 48.578125 39.265625 53.21875 
Q 39.265625 58.0625 35.90625 61.359375 
Q 32.5625 64.65625 27.59375 64.65625 
Q 22.5625 64.65625 19.234375 61.421875 
Q 15.921875 58.203125 15.921875 53.71875 
M 13.09375 20.65625 
Q 13.09375 16.890625 14.875 13.375 
Q 16.65625 9.859375 20.171875 7.921875 
Q 23.6875 6 27.734375 6 
Q 34.03125 6 38.125 10.046875 
Q 42.234375 14.109375 42.234375 20.359375 
Q 42.234375 26.703125 38.015625 30.859375 
Q 33.796875 35.015625 27.4375 35.015625 
Q 21.234375 35.015625 17.15625 30.90625 
Q 13.09375 26.8125 13.09375 20.65625 
" id="ArialMT-38"/>
      </defs>
      <g transform="translate(29.818984 34.032148)scale(0.075 -0.075)">
       <use xlink:href="#ArialMT-30"/>
       <use x="55.615234" xlink:href="#ArialMT-2e"/>
       <use x="83.398438" xlink:href="#ArialMT-30"/>
       <use x="139.013672" xlink:href="#ArialMT-38"/>
      </g>
     </g>
    </g>
    <g id="ytick_6">
     <g id="line2d_9">
      <g>
       <use style="stroke:#000000;stroke-width:0.85;" x="51.414688" xlink:href="#mac589f0f75" y="10.71"/>
      </g>
     </g>
     <g id="text_10">
      <!-- 0.10 -->
      <g transform="translate(29.818984 13.39418)scale(0.075 -0.075)">
       <use xlink:href="#ArialMT-30"/>
       <use x="55.615234" xlink:href="#ArialMT-2e"/>
       <use x="83.398438" xlink:href="#ArialMT-31"/>
       <use x="139.013672" xlink:href="#ArialMT-30"/>
      </g>
     </g>
    </g>
    <g id="text_11">
     <!-- $\sigma_{\rm{G}}$ (C/m$^{2}$) -->
     <defs>
      <path d="M 64.453125 51.859375 
L 62.9375 44.484375 
L 50 44.484375 
Q 53.765625 39.015625 53.765625 30.90625 
Q 53.765625 18.21875 46.34375 8.515625 
Q 38.921875 -1.171875 25.984375 -1.171875 
Q 16.15625 -1.171875 10.515625 4.609375 
Q 4.890625 10.40625 4.890625 19.78125 
Q 4.890625 33.6875 12.578125 43.359375 
Q 20.265625 53.03125 32.671875 53.03125 
Q 36.625 53.03125 39.84375 51.859375 
z
M 13.671875 19.96875 
Q 13.671875 13.671875 16.984375 9.671875 
Q 20.3125 5.671875 26.078125 5.671875 
Q 34.859375 5.671875 39.90625 14.09375 
Q 44.96875 22.515625 44.96875 31.296875 
Q 44.96875 38.484375 41.71875 42.328125 
Q 38.484375 46.1875 32.90625 46.1875 
Q 24.171875 46.1875 18.921875 38.15625 
Q 13.671875 30.125 13.671875 19.96875 
" id="Arial-ItalicMT-3c3"/>
      <path d="M 58.796875 25.09375 
L 68.265625 22.703125 
Q 65.28125 11.03125 57.546875 4.90625 
Q 49.8125 -1.21875 38.625 -1.21875 
Q 27.046875 -1.21875 19.796875 3.484375 
Q 12.546875 8.203125 8.765625 17.140625 
Q 4.984375 26.078125 4.984375 36.328125 
Q 4.984375 47.515625 9.25 55.828125 
Q 13.53125 64.15625 21.40625 68.46875 
Q 29.296875 72.796875 38.765625 72.796875 
Q 49.515625 72.796875 56.828125 67.328125 
Q 64.15625 61.859375 67.046875 51.953125 
L 57.71875 49.75 
Q 55.21875 57.5625 50.484375 61.125 
Q 45.75 64.703125 38.578125 64.703125 
Q 30.328125 64.703125 24.78125 60.734375 
Q 19.234375 56.78125 16.984375 50.109375 
Q 14.75 43.453125 14.75 36.375 
Q 14.75 27.25 17.40625 20.4375 
Q 20.0625 13.625 25.671875 10.25 
Q 31.296875 6.890625 37.84375 6.890625 
Q 45.796875 6.890625 51.3125 11.46875 
Q 56.84375 16.0625 58.796875 25.09375 
" id="ArialMT-43"/>
      <path d="M 0 -1.21875 
L 20.75 72.796875 
L 27.78125 72.796875 
L 7.078125 -1.21875 
z
" id="ArialMT-2f"/>
      <path d="M 6.59375 0 
L 6.59375 51.859375 
L 14.453125 51.859375 
L 14.453125 44.578125 
Q 16.890625 48.390625 20.9375 50.703125 
Q 25 53.03125 30.171875 53.03125 
Q 35.9375 53.03125 39.625 50.640625 
Q 43.3125 48.25 44.828125 43.953125 
Q 50.984375 53.03125 60.84375 53.03125 
Q 68.5625 53.03125 72.703125 48.75 
Q 76.859375 44.484375 76.859375 35.59375 
L 76.859375 0 
L 68.109375 0 
L 68.109375 32.671875 
Q 68.109375 37.9375 67.25 40.25 
Q 66.40625 42.578125 64.15625 43.984375 
Q 61.921875 45.40625 58.890625 45.40625 
Q 53.421875 45.40625 49.796875 41.765625 
Q 46.1875 38.140625 46.1875 30.125 
L 46.1875 0 
L 37.40625 0 
L 37.40625 33.6875 
Q 37.40625 39.546875 35.25 42.46875 
Q 33.109375 45.40625 28.21875 45.40625 
Q 24.515625 45.40625 21.359375 43.453125 
Q 18.21875 41.5 16.796875 37.734375 
Q 15.375 33.984375 15.375 26.90625 
L 15.375 0 
z
" id="ArialMT-6d"/>
     </defs>
     <g transform="translate(20.493984 78.954922)rotate(-90)scale(0.075 -0.075)">
      <use transform="translate(0 0.99375)" xlink:href="#Arial-ItalicMT-3c3"/>
      <use transform="translate(60.302734 -28.875)scale(0.7)" xlink:href="#ArialMT-47"/>
      <use transform="translate(119.729102 0.99375)" xlink:href="#ArialMT-20"/>
      <use transform="translate(147.512305 0.99375)" xlink:href="#ArialMT-28"/>
      <use transform="translate(180.813086 0.99375)" xlink:href="#ArialMT-43"/>
      <use transform="translate(253.029883 0.99375)" xlink:href="#ArialMT-2f"/>
      <use transform="translate(280.813086 0.99375)" xlink:href="#ArialMT-6d"/>
      <use transform="translate(365.856211 70.6875)scale(0.7)" xlink:href="#ArialMT-32"/>
      <use transform="translate(409.765 0.99375)" xlink:href="#ArialMT-29"/>
     </g>
    </g>
   </g>
   <g id="line2d_10">
    <path clip-path="url(#p7b6f0b099b)" d="M 53.264993 113.854143 
L 62.517585 112.706453 
L 69.151483 111.196063 
L 75.933671 108.997397 
L 83.480271 105.625979 
L 92.137208 100.408804 
L 102.177186 92.399208 
L 113.799019 80.351794 
L 127.079074 62.808488 
L 141.925619 38.330825 
L 158.082053 5.808482 
" style="fill:none;stroke:#1f77b4;stroke-linecap:square;stroke-width:0.85;"/>
    <defs>
     <path d="M -2 2 
L 2 2 
L 2 -2 
L -2 -2 
z
" id="m57bfecf435"/>
    </defs>
    <g clip-path="url(#p7b6f0b099b)">
     <use style="fill:#1f77b4;" x="53.264993" xlink:href="#m57bfecf435" y="113.854143"/>
     <use style="fill:#1f77b4;" x="62.517585" xlink:href="#m57bfecf435" y="112.706453"/>
     <use style="fill:#1f77b4;" x="69.151483" xlink:href="#m57bfecf435" y="111.196063"/>
     <use style="fill:#1f77b4;" x="75.933671" xlink:href="#m57bfecf435" y="108.997397"/>
     <use style="fill:#1f77b4;" x="83.480271" xlink:href="#m57bfecf435" y="105.625979"/>
     <use style="fill:#1f77b4;" x="92.137208" xlink:href="#m57bfecf435" y="100.408804"/>
     <use style="fill:#1f77b4;" x="102.177186" xlink:href="#m57bfecf435" y="92.399208"/>
     <use style="fill:#1f77b4;" x="113.799019" xlink:href="#m57bfecf435" y="80.351794"/>
     <use style="fill:#1f77b4;" x="127.079074" xlink:href="#m57bfecf435" y="62.808488"/>
     <use style="fill:#1f77b4;" x="141.925619" xlink:href="#m57bfecf435" y="38.330825"/>
     <use style="fill:#1f77b4;" x="158.082053" xlink:href="#m57bfecf435" y="5.808482"/>
    </g>
   </g>
   <g id="patch_3">
    <path d="M 51.414688 113.899844 
L 51.414688 10.71 
" style="fill:none;stroke:#000000;stroke-linecap:square;stroke-linejoin:miter;stroke-width:0.85;"/>
   </g>
   <g id="patch_4">
    <path d="M 154.962344 113.899844 
L 154.962344 10.71 
" style="fill:none;stroke:#000000;stroke-linecap:square;stroke-linejoin:miter;stroke-width:0.85;"/>
   </g>
   <g id="patch_5">
    <path d="M 51.414688 113.899844 
L 154.962344 113.899844 
" style="fill:none;stroke:#000000;stroke-linecap:square;stroke-linejoin:miter;stroke-width:0.85;"/>
   </g>
   <g id="patch_6">
    <path d="M 51.414688 10.71 
L 154.962344 10.71 
" style="fill:none;stroke:#000000;stroke-linecap:square;stroke-linejoin:miter;stroke-width:0.85;"/>
   </g>
  </g>
  <g id="axes_2">
   <g id="matplotlib.axis_3">
    <g id="ytick_7">
     <g id="line2d_11">
      <defs>
       <path d="M 0 0 
L 3.5 0 
" id="m9f970e728a" style="stroke:#000000;stroke-width:0.85;"/>
      </defs>
      <g>
       <use style="stroke:#000000;stroke-width:0.85;" x="154.962344" xlink:href="#m9f970e728a" y="113.899844"/>
      </g>
     </g>
     <g id="text_12">
      <!-- 0.00 -->
      <g transform="translate(161.962344 116.584023)scale(0.075 -0.075)">
       <use xlink:href="#ArialMT-30"/>
       <use x="55.615234" xlink:href="#ArialMT-2e"/>
       <use x="83.398438" xlink:href="#ArialMT-30"/>
       <use x="139.013672" xlink:href="#ArialMT-30"/>
      </g>
     </g>
    </g>
    <g id="ytick_8">
     <g id="line2d_12">
      <g>
       <use style="stroke:#000000;stroke-width:0.85;" x="154.962344" xlink:href="#m9f970e728a" y="96.701536"/>
      </g>
     </g>
     <g id="text_13">
      <!-- 0.05 -->
      <g transform="translate(161.962344 99.385716)scale(0.075 -0.075)">
       <use xlink:href="#ArialMT-30"/>
       <use x="55.615234" xlink:href="#ArialMT-2e"/>
       <use x="83.398438" xlink:href="#ArialMT-30"/>
       <use x="139.013672" xlink:href="#ArialMT-35"/>
      </g>
     </g>
    </g>
    <g id="ytick_9">
     <g id="line2d_13">
      <g>
       <use style="stroke:#000000;stroke-width:0.85;" x="154.962344" xlink:href="#m9f970e728a" y="79.503229"/>
      </g>
     </g>
     <g id="text_14">
      <!-- 0.10 -->
      <g transform="translate(161.962344 82.187409)scale(0.075 -0.075)">
       <use xlink:href="#ArialMT-30"/>
       <use x="55.615234" xlink:href="#ArialMT-2e"/>
       <use x="83.398438" xlink:href="#ArialMT-31"/>
       <use x="139.013672" xlink:href="#ArialMT-30"/>
      </g>
     </g>
    </g>
    <g id="ytick_10">
     <g id="line2d_14">
      <g>
       <use style="stroke:#000000;stroke-width:0.85;" x="154.962344" xlink:href="#m9f970e728a" y="62.304922"/>
      </g>
     </g>
     <g id="text_15">
      <!-- 0.15 -->
      <g transform="translate(161.962344 64.989102)scale(0.075 -0.075)">
       <use xlink:href="#ArialMT-30"/>
       <use x="55.615234" xlink:href="#ArialMT-2e"/>
       <use x="83.398438" xlink:href="#ArialMT-31"/>
       <use x="139.013672" xlink:href="#ArialMT-35"/>
      </g>
     </g>
    </g>
    <g id="ytick_11">
     <g id="line2d_15">
      <g>
       <use style="stroke:#000000;stroke-width:0.85;" x="154.962344" xlink:href="#m9f970e728a" y="45.106615"/>
      </g>
     </g>
     <g id="text_16">
      <!-- 0.20 -->
      <g transform="translate(161.962344 47.790794)scale(0.075 -0.075)">
       <use xlink:href="#ArialMT-30"/>
       <use x="55.615234" xlink:href="#ArialMT-2e"/>
       <use x="83.398438" xlink:href="#ArialMT-32"/>
       <use x="139.013672" xlink:href="#ArialMT-30"/>
      </g>
     </g>
    </g>
    <g id="ytick_12">
     <g id="line2d_16">
      <g>
       <use style="stroke:#000000;stroke-width:0.85;" x="154.962344" xlink:href="#m9f970e728a" y="27.908307"/>
      </g>
     </g>
     <g id="text_17">
      <!-- 0.25 -->
      <g transform="translate(161.962344 30.592487)scale(0.075 -0.075)">
       <use xlink:href="#ArialMT-30"/>
       <use x="55.615234" xlink:href="#ArialMT-2e"/>
       <use x="83.398438" xlink:href="#ArialMT-32"/>
       <use x="139.013672" xlink:href="#ArialMT-35"/>
      </g>
     </g>
    </g>
    <g id="ytick_13">
     <g id="line2d_17">
      <g>
       <use style="stroke:#000000;stroke-width:0.85;" x="154.962344" xlink:href="#m9f970e728a" y="10.71"/>
      </g>
     </g>
     <g id="text_18">
      <!-- 0.30 -->
      <defs>
       <path d="M 4.203125 18.890625 
L 12.984375 20.0625 
Q 14.5 12.59375 18.140625 9.296875 
Q 21.78125 6 27 6 
Q 33.203125 6 37.46875 10.296875 
Q 41.75 14.59375 41.75 20.953125 
Q 41.75 27 37.796875 30.921875 
Q 33.84375 34.859375 27.734375 34.859375 
Q 25.25 34.859375 21.53125 33.890625 
L 22.515625 41.609375 
Q 23.390625 41.5 23.921875 41.5 
Q 29.546875 41.5 34.03125 44.421875 
Q 38.53125 47.359375 38.53125 53.46875 
Q 38.53125 58.296875 35.25 61.46875 
Q 31.984375 64.65625 26.8125 64.65625 
Q 21.6875 64.65625 18.265625 61.421875 
Q 14.84375 58.203125 13.875 51.765625 
L 5.078125 53.328125 
Q 6.6875 62.15625 12.390625 67.015625 
Q 18.109375 71.875 26.609375 71.875 
Q 32.46875 71.875 37.390625 69.359375 
Q 42.328125 66.84375 44.9375 62.5 
Q 47.5625 58.15625 47.5625 53.265625 
Q 47.5625 48.640625 45.0625 44.828125 
Q 42.578125 41.015625 37.703125 38.765625 
Q 44.046875 37.3125 47.5625 32.6875 
Q 51.078125 28.078125 51.078125 21.140625 
Q 51.078125 11.765625 44.234375 5.25 
Q 37.40625 -1.265625 26.953125 -1.265625 
Q 17.53125 -1.265625 11.296875 4.34375 
Q 5.078125 9.96875 4.203125 18.890625 
" id="ArialMT-33"/>
      </defs>
      <g transform="translate(161.962344 13.39418)scale(0.075 -0.075)">
       <use xlink:href="#ArialMT-30"/>
       <use x="55.615234" xlink:href="#ArialMT-2e"/>
       <use x="83.398438" xlink:href="#ArialMT-33"/>
       <use x="139.013672" xlink:href="#ArialMT-30"/>
      </g>
     </g>
    </g>
    <g id="text_19">
     <!-- $\phi_{\rm{0}}$ (V) -->
     <defs>
      <path d="M 54 31.34375 
Q 54 22.65625 50.640625 15.28125 
Q 46.96875 7.125 40.140625 2.9375 
Q 34.515625 -0.53125 28.421875 -1.078125 
L 24.515625 -19.875 
L 15.671875 -19.875 
L 19.734375 -0.390625 
Q 11.328125 1.8125 7.515625 8.734375 
Q 4.890625 13.53125 4.890625 19.671875 
Q 4.890625 34.859375 13.8125 44.828125 
Q 20.453125 52.203125 30.859375 52.9375 
L 34.71875 71.578125 
L 43.5625 71.578125 
L 39.546875 52.25 
Q 44.625 50.875 48.296875 47.171875 
Q 54 41.359375 54 31.34375 
M 45.265625 31.390625 
Q 45.265625 38.484375 41.75 42.328125 
Q 40.1875 44.046875 38.03125 45.0625 
L 29.9375 6.15625 
Q 33.796875 7.234375 36.96875 10.296875 
Q 41.5 14.75 43.75 22.125 
Q 45.265625 27.046875 45.265625 31.390625 
M 29.34375 45.796875 
Q 23.484375 44.484375 19.09375 38.421875 
Q 13.71875 31 13.71875 20.5625 
Q 13.71875 13.28125 17.234375 9.46875 
Q 19 7.5625 21.1875 6.640625 
z
" id="Arial-ItalicMT-3d5"/>
     </defs>
     <g transform="translate(189.033047 72.092422)rotate(-90)scale(0.075 -0.075)">
      <use transform="translate(0 0.203125)" xlink:href="#Arial-ItalicMT-3d5"/>
      <use transform="translate(55.615234 -29.665625)scale(0.7)" xlink:href="#ArialMT-30"/>
      <use transform="translate(99.524023 0.203125)" xlink:href="#ArialMT-20"/>
      <use transform="translate(127.307227 0.203125)" xlink:href="#ArialMT-28"/>
      <use transform="translate(160.608008 0.203125)" xlink:href="#ArialMT-56"/>
      <use transform="translate(227.307227 0.203125)" xlink:href="#ArialMT-29"/>
     </g>
    </g>
   </g>
   <g id="line2d_18">
    <path clip-path="url(#p7b6f0b099b)" d="M 53.264993 113.555878 
L 62.517585 105.30069 
L 69.151483 96.701536 
L 75.933671 88.102383 
L 83.480271 79.503229 
L 92.137208 70.904076 
L 102.177186 62.304922 
L 113.799019 53.705768 
L 127.079074 45.106615 
L 141.925619 36.507461 
L 158.082053 27.908307 
" style="fill:none;stroke:#ff0000;stroke-linecap:square;stroke-width:0.85;"/>
    <defs>
     <path d="M 0 2 
C 0.530406 2 1.03916 1.789267 1.414214 1.414214 
C 1.789267 1.03916 2 0.530406 2 0 
C 2 -0.530406 1.789267 -1.03916 1.414214 -1.414214 
C 1.03916 -1.789267 0.530406 -2 0 -2 
C -0.530406 -2 -1.03916 -1.789267 -1.414214 -1.414214 
C -1.789267 -1.03916 -2 -0.530406 -2 0 
C -2 0.530406 -1.789267 1.03916 -1.414214 1.414214 
C -1.03916 1.789267 -0.530406 2 0 2 
z
" id="m3cb73c41e6"/>
    </defs>
    <g clip-path="url(#p7b6f0b099b)">
     <use style="fill:#ff0000;" x="53.264993" xlink:href="#m3cb73c41e6" y="113.555878"/>
     <use style="fill:#ff0000;" x="62.517585" xlink:href="#m3cb73c41e6" y="105.30069"/>
     <use style="fill:#ff0000;" x="69.151483" xlink:href="#m3cb73c41e6" y="96.701536"/>
     <use style="fill:#ff0000;" x="75.933671" xlink:href="#m3cb73c41e6" y="88.102383"/>
     <use style="fill:#ff0000;" x="83.480271" xlink:href="#m3cb73c41e6" y="79.503229"/>
     <use style="fill:#ff0000;" x="92.137208" xlink:href="#m3cb73c41e6" y="70.904076"/>
     <use style="fill:#ff0000;" x="102.177186" xlink:href="#m3cb73c41e6" y="62.304922"/>
     <use style="fill:#ff0000;" x="113.799019" xlink:href="#m3cb73c41e6" y="53.705768"/>
     <use style="fill:#ff0000;" x="127.079074" xlink:href="#m3cb73c41e6" y="45.106615"/>
     <use style="fill:#ff0000;" x="141.925619" xlink:href="#m3cb73c41e6" y="36.507461"/>
     <use style="fill:#ff0000;" x="158.082053" xlink:href="#m3cb73c41e6" y="27.908307"/>
    </g>
   </g>
   <g id="patch_7">
    <path d="M 51.414688 113.899844 
L 51.414688 10.71 
" style="fill:none;stroke:#000000;stroke-linecap:square;stroke-linejoin:miter;stroke-width:0.85;"/>
   </g>
   <g id="patch_8">
    <path d="M 154.962344 113.899844 
L 154.962344 10.71 
" style="fill:none;stroke:#000000;stroke-linecap:square;stroke-linejoin:miter;stroke-width:0.85;"/>
   </g>
   <g id="patch_9">
    <path d="M 51.414688 113.899844 
L 154.962344 113.899844 
" style="fill:none;stroke:#000000;stroke-linecap:square;stroke-linejoin:miter;stroke-width:0.85;"/>
   </g>
   <g id="patch_10">
    <path d="M 51.414688 10.71 
L 154.962344 10.71 
" style="fill:none;stroke:#000000;stroke-linecap:square;stroke-linejoin:miter;stroke-width:0.85;"/>
   </g>
  </g>
 </g>
 <defs>
  <clipPath id="p7b6f0b099b">
   <rect height="103.189844" width="103.547656" x="51.414688" y="10.71"/>
  </clipPath>
 </defs>
</svg>
